<svg id="Layer_1" data-name="Layer 1" xmlns="http://www.w3.org/2000/svg" xmlns:xlink="http://www.w3.org/1999/xlink" width="1366" height="768" viewBox="0 0 1366 768"><defs><style>.cls-1{fill:url(#radial-gradient);}</style><radialGradient id="radial-gradient" cx="684.28" cy="391.19" r="360.22" gradientTransform="translate(-45.37) scale(1.04 1)" gradientUnits="userSpaceOnUse"><stop offset="0" stop-color="#fbfcf0"/><stop offset="0.25" stop-color="#f0fcf9"/><stop offset="0.49" stop-color="#f7eefa"/><stop offset="0.71" stop-color="#f0fafb"/><stop offset="0.84" stop-color="#fcfdf7"/><stop offset="1" stop-color="#fcfdf7" stop-opacity="0"/></radialGradient></defs><ellipse class="cls-1" cx="666.42" cy="391.19" rx="374.71" ry="360.22"/><image width="1366" height="768" xlink:href="1Artboard%2021.png"/><path d="M194.4,179.73l6-19.5h2.44l5.91,19.5H206.6l-1.87-6h-7l-1.87,6Zm3.71-7.23h6.26L201.27,162Z"/><path d="M211.44,179.73V157.29l2-.12v22.56Z"/><path d="M218.75,179a5.86,5.86,0,0,1-.72-3.32V166.2H216.6v-1.26l1.43-.18.74-4.77H220v4.74h3.52v1.47H220v9a7.16,7.16,0,0,0,.34,2.69,1.22,1.22,0,0,0,1.2.73,4.66,4.66,0,0,0,1.23-.15,2.19,2.19,0,0,0,.55-.18l.14,1.2a1.45,1.45,0,0,1-.34.2,4.39,4.39,0,0,1-.86.25,6.53,6.53,0,0,1-1.36.12A2.5,2.5,0,0,1,218.75,179Z"/><path d="M226.71,161.37a1.49,1.49,0,0,1,0-1.92,1,1,0,0,1,.8-.33,1.14,1.14,0,0,1,.83.3,1.48,1.48,0,0,1,.33,1,1.51,1.51,0,0,1-.33,1,1.27,1.27,0,0,1-.83.33A1,1,0,0,1,226.71,161.37Zm-.21,18.36v-15h2v15Z"/><path d="M233.09,178.08a8.66,8.66,0,0,1-1.51-5.43,10.74,10.74,0,0,1,1.47-6,4.68,4.68,0,0,1,4.14-2.24,5,5,0,0,1,1.89.32,4,4,0,0,1,1.18.69c.28.25.42.39.42.43h0v-8.58l2-.12v22.56H241l-.22-1.77a4.06,4.06,0,0,1-1.18,1.37,3.87,3.87,0,0,1-2.48.7A4.83,4.83,0,0,1,233.09,178.08Zm6.16,0a3.92,3.92,0,0,0,1.08-1,2.37,2.37,0,0,0,.37-.63v-9.21s-.12-.18-.37-.42a3.6,3.6,0,0,0-1-.66,3.55,3.55,0,0,0-1.52-.3,3.35,3.35,0,0,0-3.11,1.7,10.14,10.14,0,0,0-1,5,8.21,8.21,0,0,0,1,4.56,3.27,3.27,0,0,0,2.87,1.41A3.08,3.08,0,0,0,239.25,178.1Z"/><path d="M253.18,157.29l2-.12v8.91h0a4.42,4.42,0,0,1,1.71-1.23,5.74,5.74,0,0,1,2.22-.42,3.92,3.92,0,0,1,3.09,1.22,5.23,5.23,0,0,1,1.09,3.61v10.47h-2v-10.2q0-3.51-2.86-3.51a4.24,4.24,0,0,0-1.73.33,4.07,4.07,0,0,0-1.15.72c-.28.26-.41.41-.41.45v12.21h-2Z"/><path d="M268.18,178.82a5.26,5.26,0,0,1-1.1-3.62V164.73h2v10q0,3.69,2.86,3.69a3.85,3.85,0,0,0,1.7-.34,4.59,4.59,0,0,0,1.14-.74c.29-.26.43-.41.43-.45V164.73h2v15h-1.68l-.28-1.44a4.16,4.16,0,0,1-1.31,1.14,5.05,5.05,0,0,1-2.67.6A4,4,0,0,1,268.18,178.82Z"/><path d="M282.3,179.54a5,5,0,0,1-1.52-1.07,2.74,2.74,0,0,1-.5-.66l.68-1.05a3.05,3.05,0,0,0,.44.57,4.68,4.68,0,0,0,1.21.95,3.63,3.63,0,0,0,1.82.43,3,3,0,0,0,2.32-.84,2.89,2.89,0,0,0,.78-2,2.42,2.42,0,0,0-.4-1.44,2.7,2.7,0,0,0-1-.88,14,14,0,0,0-1.63-.71,16.21,16.21,0,0,1-1.93-.88,3.55,3.55,0,0,1-1.22-1.22,3.89,3.89,0,0,1-.51-2.1,3.85,3.85,0,0,1,1.28-3,4.8,4.8,0,0,1,3.29-1.13,5.68,5.68,0,0,1,1.69.26,6.62,6.62,0,0,1,1.3.54l.63.37-.33,1.29a6.51,6.51,0,0,0-.55-.37A6.05,6.05,0,0,0,287,166a3.92,3.92,0,0,0-1.44-.27,3,3,0,0,0-2.05.69,2.22,2.22,0,0,0-.78,1.74,2.51,2.51,0,0,0,.41,1.46,3,3,0,0,0,1,.91,17.2,17.2,0,0,0,1.67.75,13.34,13.34,0,0,1,2,.89,3.58,3.58,0,0,1,1.8,3.34,4.54,4.54,0,0,1-1.24,3.26,4.74,4.74,0,0,1-3.62,1.3A5.47,5.47,0,0,1,282.3,179.54Z"/><path d="M292.53,179.73V157.29l2-.12V171.6l1.68-1.26,4.09-5.61h1.51l-4.53,6.15,5.11,8.85h-2.28l-4.37-7.56-1.21.81v6.75Z"/><path d="M305.61,178.16q-1.56-1.87-1.56-5.63a10.2,10.2,0,0,1,1.51-5.94,4.77,4.77,0,0,1,4.12-2.16,4.2,4.2,0,0,1,3.64,1.79,8.51,8.51,0,0,1,1.28,5.05,7.63,7.63,0,0,1-.05.93,4.09,4.09,0,0,1-.09.45h-8.32c0,4,1.33,6.06,4,6.06a3.81,3.81,0,0,0,1.88-.43,4.59,4.59,0,0,0,1.22-.93,1.93,1.93,0,0,0,.44-.59l.8.72a2.61,2.61,0,0,1-.52.77,5.26,5.26,0,0,1-1.54,1.21,5.05,5.05,0,0,1-2.5.57A5.34,5.34,0,0,1,305.61,178.16Zm7.12-6.77,0-.57q0-5.1-3.08-5.1a2.8,2.8,0,0,0-2.5,1.4,9,9,0,0,0-1,4.27Z"/><path d="M317.51,164.73H319l.3,3.09a6.16,6.16,0,0,1,1.29-2.64,2.17,2.17,0,0,1,1.71-.75,4.28,4.28,0,0,1,1.18.2,8.14,8.14,0,0,1,.85.28l-.19,1.65a6.85,6.85,0,0,0-.87-.27,4.71,4.71,0,0,0-1.19-.18,1.8,1.8,0,0,0-1.36.59,3.89,3.89,0,0,0-.84,1.24,7.63,7.63,0,0,0-.36,1v10.8h-2Z"/><path d="M333.45,178.08a8.72,8.72,0,0,1-1.51-5.43,10.74,10.74,0,0,1,1.47-6,4.68,4.68,0,0,1,4.14-2.24,5,5,0,0,1,1.89.32,4.06,4.06,0,0,1,1.19.69c.27.25.41.39.41.43h0v-8.58l2-.12v22.56h-1.7l-.22-1.77a4.06,4.06,0,0,1-1.18,1.37,3.86,3.86,0,0,1-2.47.7A4.84,4.84,0,0,1,333.45,178.08Zm6.16,0a3.66,3.66,0,0,0,1.08-1,2.59,2.59,0,0,0,.38-.63v-9.21s-.13-.18-.38-.42a3.53,3.53,0,0,0-1-.66,3.6,3.6,0,0,0-1.53-.3,3.34,3.34,0,0,0-3.1,1.7,10.14,10.14,0,0,0-1,5,8.22,8.22,0,0,0,1,4.56,3.28,3.28,0,0,0,2.88,1.41A3.07,3.07,0,0,0,339.61,178.1Z"/><path d="M347.36,161.37a1.46,1.46,0,0,1,0-1.92,1,1,0,0,1,.8-.33,1.12,1.12,0,0,1,.82.3,1.48,1.48,0,0,1,.33,1,1.51,1.51,0,0,1-.33,1,1.25,1.25,0,0,1-.82.33A1,1,0,0,1,347.36,161.37Zm-.22,18.36v-15h2v15Z"/><path d="M353.27,186.29a5.21,5.21,0,0,1-.87-6.17,3.9,3.9,0,0,1,1.64-1.41,2.8,2.8,0,0,1-.5-1.77,3.16,3.16,0,0,1,1.27-2.52,4.22,4.22,0,0,1-1.71-1.81,6.31,6.31,0,0,1-.6-2.87,4.7,4.7,0,0,1,5.05-5.31,5.53,5.53,0,0,1,1.9.3l3.55,0v1.17l-1.76.06a5.8,5.8,0,0,1,1.1,3.75,5.63,5.63,0,0,1-1.28,4,4.57,4.57,0,0,1-3.53,1.38,6.18,6.18,0,0,1-1.68-.21,1.94,1.94,0,0,0-1,1.56,1.17,1.17,0,0,0,.6,1.13,4.52,4.52,0,0,0,1.95.31c4,0,6,1.54,6,4.62a4.7,4.7,0,0,1-1.49,3.75,6.38,6.38,0,0,1-4.28,1.29A6.79,6.79,0,0,1,353.27,186.29Zm7.39-1a3,3,0,0,0,1-2.48q0-3.15-4.48-3.15a7.17,7.17,0,0,1-2.06-.24,3,3,0,0,0-1.33,1.16,3.61,3.61,0,0,0-.51,2,3.2,3.2,0,0,0,1.14,2.69,5.17,5.17,0,0,0,3.23.88A4.59,4.59,0,0,0,360.66,185.33Zm-.27-15.62a4.81,4.81,0,0,0-.77-3.07,2.7,2.7,0,0,0-2.18-.92,2.83,2.83,0,0,0-2.21.9,4.67,4.67,0,0,0-.81,3.12,5.07,5.07,0,0,0,.8,3.09,2.66,2.66,0,0,0,2.25,1C359.41,173.88,360.39,172.49,360.39,169.71Z"/><path d="M1011.73,307.39l6-19.5h2.44l5.91,19.5h-2.17l-1.87-6h-7l-1.86,6Zm3.71-7.23h6.27l-3.11-10.53Z"/><path d="M1028.77,307.39V285l2-.12v22.56Z"/><path d="M1035.36,305.74a8.72,8.72,0,0,1-1.51-5.43,10.74,10.74,0,0,1,1.47-6,4.68,4.68,0,0,1,4.14-2.24,5,5,0,0,1,1.89.32,4.06,4.06,0,0,1,1.19.69c.27.25.41.39.41.43h0V285l2-.12v22.56h-1.71l-.22-1.77a4,4,0,0,1-1.18,1.37,3.86,3.86,0,0,1-2.47.7A4.84,4.84,0,0,1,1035.36,305.74Zm6.16,0a3.66,3.66,0,0,0,1.08-1,2.59,2.59,0,0,0,.38-.63v-9.21s-.13-.18-.38-.42a3.53,3.53,0,0,0-1-.66,3.6,3.6,0,0,0-1.53-.3,3.34,3.34,0,0,0-3.1,1.7,10.14,10.14,0,0,0-1,5,8.22,8.22,0,0,0,1,4.56,3.28,3.28,0,0,0,2.88,1.41A3.07,3.07,0,0,0,1041.52,305.76Z"/><path d="M1049.05,292.39h1.48l.31,3.09a4.78,4.78,0,0,1,.31-1,5.13,5.13,0,0,1,1-1.61,2.15,2.15,0,0,1,1.7-.75,4.22,4.22,0,0,1,1.18.2,8.64,8.64,0,0,1,.86.28l-.2,1.65a6.52,6.52,0,0,0-.86-.27,4.72,4.72,0,0,0-1.2-.18,1.83,1.83,0,0,0-1.36.59,4.25,4.25,0,0,0-.84,1.24,7.24,7.24,0,0,0-.35,1v10.8h-2Z"/><path d="M1058.31,289a1.46,1.46,0,0,1,0-1.92,1,1,0,0,1,.8-.33,1.1,1.1,0,0,1,.82.3,1.48,1.48,0,0,1,.33,1,1.51,1.51,0,0,1-.33,1,1.25,1.25,0,0,1-.82.33A1,1,0,0,1,1058.31,289Zm-.22,18.36v-15h2v15Z"/><path d="M1064.22,314a5.21,5.21,0,0,1-.87-6.17,3.9,3.9,0,0,1,1.64-1.41,2.8,2.8,0,0,1-.5-1.77,3.16,3.16,0,0,1,1.27-2.52,4.28,4.28,0,0,1-1.71-1.81,6.31,6.31,0,0,1-.6-2.87,4.71,4.71,0,0,1,5.06-5.31,5.51,5.51,0,0,1,1.89.3l3.55,0v1.17l-1.76.06a5.8,5.8,0,0,1,1.1,3.75,5.63,5.63,0,0,1-1.28,4,4.57,4.57,0,0,1-3.53,1.38,6.23,6.23,0,0,1-1.68-.21,1.94,1.94,0,0,0-1,1.56,1.17,1.17,0,0,0,.6,1.13,4.54,4.54,0,0,0,2,.31q6,0,6,4.62a4.67,4.67,0,0,1-1.49,3.75,6.38,6.38,0,0,1-4.28,1.29A6.81,6.81,0,0,1,1064.22,314Zm7.39-1a3,3,0,0,0,1.05-2.48c0-2.1-1.5-3.15-4.48-3.15a7.2,7.2,0,0,1-2.07-.24,3,3,0,0,0-1.33,1.16,3.61,3.61,0,0,0-.51,2,3.2,3.2,0,0,0,1.14,2.69,5.17,5.17,0,0,0,3.23.88A4.57,4.57,0,0,0,1071.61,313Zm-.27-15.62a4.81,4.81,0,0,0-.77-3.07,2.7,2.7,0,0,0-2.17-.92,2.84,2.84,0,0,0-2.22.9,4.67,4.67,0,0,0-.81,3.12,5.07,5.07,0,0,0,.8,3.09,2.66,2.66,0,0,0,2.25,1.05Q1071.34,301.54,1071.34,297.37Z"/><path d="M1083.57,293.86h-1.43V292.6l1.43-.18v-2.16a8.52,8.52,0,0,1,.82-4.27,3,3,0,0,1,2.78-1.37,3.78,3.78,0,0,1,1.23.2,5.08,5.08,0,0,1,.94.4l.44.27-.28,1.17-.36-.22a3.7,3.7,0,0,0-.71-.32,2.8,2.8,0,0,0-.91-.15,1.6,1.6,0,0,0-1.15.39,2.61,2.61,0,0,0-.62,1.38,14,14,0,0,0-.21,2.76v1.89h4v1.47h-4v13.53h-2Z"/><path d="M1092.07,305.65a11.81,11.81,0,0,1,0-11.52,5.67,5.67,0,0,1,8.71,0,11.72,11.72,0,0,1,0,11.51,5.64,5.64,0,0,1-8.69,0Zm7.19-.88a13.49,13.49,0,0,0,0-9.74,3.29,3.29,0,0,0-5.66,0,13.51,13.51,0,0,0,0,9.75,3.3,3.3,0,0,0,5.66,0Z"/><path d="M1105.36,292.39h1.48l.3,3.09a6.05,6.05,0,0,1,1.3-2.64,2.15,2.15,0,0,1,1.7-.75,4.22,4.22,0,0,1,1.18.2,8.14,8.14,0,0,1,.85.28l-.19,1.65a7.09,7.09,0,0,0-.86-.27,4.72,4.72,0,0,0-1.2-.18,1.82,1.82,0,0,0-1.36.59,3.89,3.89,0,0,0-.84,1.24,9.54,9.54,0,0,0-.36,1v10.8h-2Z"/><path d="M1115.38,307.2a5,5,0,0,1-1.52-1.07,2.45,2.45,0,0,1-.5-.66l.68-1.05a3.05,3.05,0,0,0,.44.57,4.68,4.68,0,0,0,1.21.95,3.63,3.63,0,0,0,1.82.43,3,3,0,0,0,2.32-.84,2.89,2.89,0,0,0,.78-2,2.42,2.42,0,0,0-.4-1.44,2.7,2.7,0,0,0-1-.88,14,14,0,0,0-1.63-.71,16.21,16.21,0,0,1-1.93-.88,3.55,3.55,0,0,1-1.22-1.22,3.89,3.89,0,0,1-.51-2.1,3.85,3.85,0,0,1,1.28-3,4.8,4.8,0,0,1,3.29-1.13,5.57,5.57,0,0,1,1.68.26,6.49,6.49,0,0,1,1.31.54l.63.37-.33,1.29a6.51,6.51,0,0,0-.55-.37,6.05,6.05,0,0,0-1.14-.56,4,4,0,0,0-1.44-.27,3,3,0,0,0-2.05.69,2.22,2.22,0,0,0-.78,1.74,2.51,2.51,0,0,0,.41,1.46,3,3,0,0,0,1,.91,18,18,0,0,0,1.66.75,13,13,0,0,1,2,.89,3.58,3.58,0,0,1,1.8,3.34,4.54,4.54,0,0,1-1.24,3.26,4.75,4.75,0,0,1-3.63,1.3A5.46,5.46,0,0,1,1115.38,307.2Z"/><path d="M1126.82,306.69a5.87,5.87,0,0,1-.71-3.32v-9.51h-1.43V292.6l1.43-.18.74-4.77h1.26v4.74h3.52v1.47h-3.52v9a7.11,7.11,0,0,0,.35,2.69,1.2,1.2,0,0,0,1.19.73,4.73,4.73,0,0,0,1.24-.15,2.41,2.41,0,0,0,.55-.18l.14,1.2a1.61,1.61,0,0,1-.35.2,4.26,4.26,0,0,1-.85.25,6.67,6.67,0,0,1-1.36.12A2.52,2.52,0,0,1,1126.82,306.69Z"/><path d="M1134.52,306.72a3.43,3.43,0,0,1-1.1-2.72q0-4.41,7.77-5.31V297.1a4.84,4.84,0,0,0-.63-2.91,2.71,2.71,0,0,0-2.22-.78,4,4,0,0,0-1.46.29,7.32,7.32,0,0,0-1.25.6l-.65.4-.22-1.23a6.33,6.33,0,0,1,.7-.45,8.54,8.54,0,0,1,1.43-.63,5.32,5.32,0,0,1,1.75-.3,4.78,4.78,0,0,1,3.46,1.08c.73.72,1.1,2,1.1,3.81v7.35a4.14,4.14,0,0,0,.21,1.62q.19.42.51.42a2.19,2.19,0,0,0,.6-.1,3,3,0,0,0,.47-.17l.08,1-.94.33a3.89,3.89,0,0,1-1.2.24,1.3,1.3,0,0,1-1.1-.49,3.27,3.27,0,0,1-.47-1.76h0a2.33,2.33,0,0,1-.44.69,4.38,4.38,0,0,1-1.3,1.07,4.31,4.31,0,0,1-2.16.49A4.21,4.21,0,0,1,1134.52,306.72Zm5.22-.83a3.74,3.74,0,0,0,1.08-1.05,2.62,2.62,0,0,0,.37-.66V299.8a11.64,11.64,0,0,0-4.11,1.17,2.92,2.92,0,0,0-1.6,2.76,2.64,2.64,0,0,0,.69,2,2.53,2.53,0,0,0,1.86.67A3,3,0,0,0,1139.74,305.89Zm-2.57-15.75a3.47,3.47,0,0,1,0-4.14,2.43,2.43,0,0,1,3.51,0,3.45,3.45,0,0,1,0,4.14,2.54,2.54,0,0,1-3.54,0Zm3-.55a2.21,2.21,0,0,0,.45-1.52,2.18,2.18,0,0,0-.45-1.51,1.69,1.69,0,0,0-2.41,0,2.66,2.66,0,0,0,0,3,1.59,1.59,0,0,0,1.21.49A1.55,1.55,0,0,0,1140.14,289.59Z"/><path d="M1147.68,292.39h1.48l.31,3.09a4.78,4.78,0,0,1,.31-1,5.13,5.13,0,0,1,1-1.61,2.17,2.17,0,0,1,1.7-.75,4.22,4.22,0,0,1,1.18.2,8.64,8.64,0,0,1,.86.28l-.2,1.65a6.52,6.52,0,0,0-.86-.27,4.72,4.72,0,0,0-1.2-.18,1.83,1.83,0,0,0-1.36.59,4.25,4.25,0,0,0-.84,1.24,7.24,7.24,0,0,0-.35,1v10.8h-2Z"/><path d="M1163.62,305.74a8.66,8.66,0,0,1-1.51-5.43,10.74,10.74,0,0,1,1.47-6,4.68,4.68,0,0,1,4.13-2.24,5,5,0,0,1,1.9.32,4,4,0,0,1,1.18.69c.28.25.41.39.41.43h0V285l2-.12v22.56h-1.7l-.22-1.77a4.18,4.18,0,0,1-1.18,1.37,3.89,3.89,0,0,1-2.48.7A4.82,4.82,0,0,1,1163.62,305.74Zm6.16,0a3.92,3.92,0,0,0,1.08-1,2.37,2.37,0,0,0,.37-.63v-9.21s-.12-.18-.37-.42a3.75,3.75,0,0,0-1-.66,3.55,3.55,0,0,0-1.52-.3,3.35,3.35,0,0,0-3.11,1.7,10.14,10.14,0,0,0-1,5,8.21,8.21,0,0,0,1,4.56,3.27,3.27,0,0,0,2.87,1.41A3.08,3.08,0,0,0,1169.78,305.76Z"/><path d="M1177.53,289a1.46,1.46,0,0,1,0-1.92,1,1,0,0,1,.79-.33,1.14,1.14,0,0,1,.83.3,1.48,1.48,0,0,1,.33,1,1.51,1.51,0,0,1-.33,1,1.25,1.25,0,0,1-.83.33A1,1,0,0,1,1177.53,289Zm-.23,18.36v-15h2v15Z"/><path d="M1183.43,292.39h1.65l.25,1.44a5.19,5.19,0,0,1,1.37-1.15,5.13,5.13,0,0,1,2.7-.59,3.92,3.92,0,0,1,3.07,1.22,5.18,5.18,0,0,1,1.1,3.61v10.47h-2v-10a4.41,4.41,0,0,0-.72-2.8,2.55,2.55,0,0,0-2.11-.89,4.34,4.34,0,0,0-2.9,1.05c-.29.26-.43.41-.43.45v12.21h-2Z"/><path d="M1198,305.82q-1.58-1.87-1.57-5.63a10.2,10.2,0,0,1,1.51-5.94,4.77,4.77,0,0,1,4.12-2.16,4.2,4.2,0,0,1,3.64,1.79,8.51,8.51,0,0,1,1.28,5.05,7.63,7.63,0,0,1,0,.93c0,.24-.07.39-.08.45h-8.33c0,4,1.33,6.06,4,6.06a3.81,3.81,0,0,0,1.88-.43,4.82,4.82,0,0,0,1.23-.93,2.16,2.16,0,0,0,.44-.59l.79.72a2.61,2.61,0,0,1-.52.77,5.26,5.26,0,0,1-1.54,1.21,5.05,5.05,0,0,1-2.5.57A5.3,5.3,0,0,1,1198,305.82Zm7.11-6.77,0-.57q0-5.1-3.08-5.1a2.8,2.8,0,0,0-2.5,1.4,9.05,9.05,0,0,0-1,4.27Z"/><path d="M1213.86,315a2.5,2.5,0,0,1-.65-.3,2.15,2.15,0,0,1-.26-.21l.38-1.23.21.15a2.16,2.16,0,0,0,.48.23,2.09,2.09,0,0,0,.69.1,1.7,1.7,0,0,0,1.59-1.2,10.74,10.74,0,0,0,.52-4V292.39h2v16.23q0,6.57-3.88,6.57A3.37,3.37,0,0,1,1213.86,315Zm3.18-26a1.49,1.49,0,0,1,0-1.92,1,1,0,0,1,.8-.33,1.14,1.14,0,0,1,.83.3,1.53,1.53,0,0,1,.32,1,1.56,1.56,0,0,1-.32,1,1.27,1.27,0,0,1-.83.33A1,1,0,0,1,1217,289Z"/><path d="M1223.41,305.65a11.81,11.81,0,0,1,0-11.52,5.67,5.67,0,0,1,8.71,0,9.58,9.58,0,0,1,1.5,5.76,9.47,9.47,0,0,1-1.53,5.75,5.63,5.63,0,0,1-8.68,0Zm7.18-.88a13.49,13.49,0,0,0,0-9.74,3.29,3.29,0,0,0-5.66,0,13.51,13.51,0,0,0,0,9.75,3.3,3.3,0,0,0,5.66,0Z"/><path d="M1236.69,307.39V285l2-.12v14.43l1.68-1.26,4.09-5.61H1246l-4.53,6.15,5.11,8.85h-2.28l-4.37-7.56-1.21.81v6.75Z"/><path d="M1249.77,305.82q-1.56-1.87-1.56-5.63a10.2,10.2,0,0,1,1.51-5.94,4.77,4.77,0,0,1,4.12-2.16,4.2,4.2,0,0,1,3.64,1.79,8.58,8.58,0,0,1,1.28,5.05,7.63,7.63,0,0,1,0,.93,4.09,4.09,0,0,1-.09.45h-8.32c0,4,1.33,6.06,4,6.06a3.81,3.81,0,0,0,1.88-.43,4.59,4.59,0,0,0,1.22-.93,1.93,1.93,0,0,0,.44-.59l.8.72a2.61,2.61,0,0,1-.52.77,5.26,5.26,0,0,1-1.54,1.21,5.05,5.05,0,0,1-2.5.57A5.34,5.34,0,0,1,1249.77,305.82Zm7.12-6.77,0-.57q0-5.1-3.08-5.1a2.8,2.8,0,0,0-2.5,1.4,9,9,0,0,0-1,4.27Z"/><path d="M1262.65,307.2a4.93,4.93,0,0,1-1.51-1.07,2.64,2.64,0,0,1-.51-.66l.69-1.05a2.59,2.59,0,0,0,.44.57,4.45,4.45,0,0,0,1.2.95,3.66,3.66,0,0,0,1.82.43,3,3,0,0,0,2.32-.84,2.89,2.89,0,0,0,.78-2,2.49,2.49,0,0,0-.39-1.44,2.87,2.87,0,0,0-1-.88,14.31,14.31,0,0,0-1.64-.71,15.26,15.26,0,0,1-1.92-.88,3.5,3.5,0,0,1-1.23-1.22,4,4,0,0,1-.5-2.1,3.84,3.84,0,0,1,1.27-3,4.82,4.82,0,0,1,3.29-1.13,5.63,5.63,0,0,1,1.69.26,6.62,6.62,0,0,1,1.3.54l.64.37-.33,1.29-.55-.37a6.73,6.73,0,0,0-1.14-.56,4,4,0,0,0-1.45-.27,3,3,0,0,0-2,.69,2.2,2.2,0,0,0-.79,1.74,2.51,2.51,0,0,0,.41,1.46,3,3,0,0,0,1,.91c.42.22,1,.47,1.67.75a13.34,13.34,0,0,1,2,.89,3.69,3.69,0,0,1,1.28,1.24,3.8,3.8,0,0,1,.52,2.1,4.57,4.57,0,0,1-1.23,3.26,4.78,4.78,0,0,1-3.63,1.3A5.53,5.53,0,0,1,1262.65,307.2Z"/><path d="M1272.09,311.56a7.2,7.2,0,0,0,1.87-4.65h-.08a1.15,1.15,0,0,1-.8-.33,1.32,1.32,0,0,1-.33-.93,1.39,1.39,0,0,1,.33-.93,1,1,0,0,1,.77-.3,1.06,1.06,0,0,1,.79.3l.14.21a2.76,2.76,0,0,1,.3,1.44,8.89,8.89,0,0,1-.68,3.18,7,7,0,0,1-1.73,2.67Z"/><path d="M1013.16,328.39h1.65l.24,1.59a6.35,6.35,0,0,1,1.43-1.24,4.31,4.31,0,0,1,2.45-.65,3.44,3.44,0,0,1,1.83.44,2.63,2.63,0,0,1,1,1.39,5.61,5.61,0,0,1,1.46-1.2,4.79,4.79,0,0,1,2.56-.63,3.08,3.08,0,0,1,2.53,1,5.33,5.33,0,0,1,.79,3.3v11h-2V332.62a3.94,3.94,0,0,0-.5-2.35,1.89,1.89,0,0,0-1.57-.62,3.1,3.1,0,0,0-1.88.56,4.6,4.6,0,0,0-1.11,1.09c0,.44,0,.79,0,1.05v11h-2V332.62a4.08,4.08,0,0,0-.48-2.34,1.8,1.8,0,0,0-1.53-.63,3.23,3.23,0,0,0-1.94.57,3.68,3.68,0,0,0-1.05,1v12.12h-2Z"/><path d="M1033.6,341.82q-1.56-1.87-1.56-5.63a10.2,10.2,0,0,1,1.51-5.94,4.77,4.77,0,0,1,4.12-2.16,4.2,4.2,0,0,1,3.64,1.79,8.51,8.51,0,0,1,1.28,5.05,7.63,7.63,0,0,1,0,.93,4.09,4.09,0,0,1-.09.45h-8.32c0,4,1.33,6.06,4,6.06a3.81,3.81,0,0,0,1.88-.43,4.82,4.82,0,0,0,1.23-.93,2,2,0,0,0,.43-.59l.8.72a2.61,2.61,0,0,1-.52.77,5.26,5.26,0,0,1-1.54,1.21,5.05,5.05,0,0,1-2.5.57A5.34,5.34,0,0,1,1033.6,341.82Zm7.12-6.77,0-.57q0-5.1-3.08-5.1a2.8,2.8,0,0,0-2.5,1.4,9,9,0,0,0-1,4.27Z"/><path d="M1045.53,328.39h1.65l.25,1.44a5.19,5.19,0,0,1,1.37-1.15,5.09,5.09,0,0,1,2.69-.59,3.94,3.94,0,0,1,3.08,1.22,5.23,5.23,0,0,1,1.1,3.61v10.47h-2v-10a4.41,4.41,0,0,0-.72-2.8,2.57,2.57,0,0,0-2.12-.89,4.28,4.28,0,0,0-2.89,1.05c-.29.26-.43.41-.43.45v12.21h-2Z"/><path d="M1066,350a5.17,5.17,0,0,1-.87-6.17,3.9,3.9,0,0,1,1.64-1.41,2.8,2.8,0,0,1-.5-1.77,3.18,3.18,0,0,1,1.26-2.52,4.25,4.25,0,0,1-1.7-1.81,6.31,6.31,0,0,1-.6-2.87,4.7,4.7,0,0,1,5-5.31,5.53,5.53,0,0,1,1.9.3l3.54,0v1.17l-1.75.06a5.8,5.8,0,0,1,1.09,3.75,5.63,5.63,0,0,1-1.27,4,4.59,4.59,0,0,1-3.53,1.38,6.13,6.13,0,0,1-1.68-.21,1.94,1.94,0,0,0-1,1.56,1.17,1.17,0,0,0,.6,1.13,4.49,4.49,0,0,0,2,.31c4,0,6,1.54,6,4.62a4.67,4.67,0,0,1-1.5,3.75,6.33,6.33,0,0,1-4.27,1.29A6.79,6.79,0,0,1,1066,350Zm7.39-1a3,3,0,0,0,1-2.48q0-3.15-4.48-3.15a7.13,7.13,0,0,1-2.06-.24,3,3,0,0,0-1.33,1.16,3.61,3.61,0,0,0-.51,2,3.2,3.2,0,0,0,1.14,2.69,5.17,5.17,0,0,0,3.23.88A4.59,4.59,0,0,0,1073.4,349Zm-.28-15.62a4.74,4.74,0,0,0-.77-3.07,2.67,2.67,0,0,0-2.17-.92,2.83,2.83,0,0,0-2.21.9,4.67,4.67,0,0,0-.81,3.12,5,5,0,0,0,.8,3.09,2.66,2.66,0,0,0,2.25,1.05Q1073.12,337.54,1073.12,333.37Z"/><path d="M1078.37,328.39h1.49l.3,3.09a4.78,4.78,0,0,1,.31-1,5.13,5.13,0,0,1,1-1.61,2.17,2.17,0,0,1,1.7-.75,4.16,4.16,0,0,1,1.18.2,7.78,7.78,0,0,1,.86.28l-.19,1.65a6.85,6.85,0,0,0-.87-.27,4.72,4.72,0,0,0-1.2-.18,1.83,1.83,0,0,0-1.36.59,4,4,0,0,0-.83,1.24,6.36,6.36,0,0,0-.36,1v10.8h-2Z"/><path d="M1087.63,325a1.49,1.49,0,0,1,0-1.92,1,1,0,0,1,.8-.33,1.1,1.1,0,0,1,.82.3,1.48,1.48,0,0,1,.33,1,1.51,1.51,0,0,1-.33,1,1.23,1.23,0,0,1-.82.33A1,1,0,0,1,1087.63,325Zm-.22,18.36v-15h2v15Z"/><path d="M1093.54,328.39h1.65l.25,1.44a5.19,5.19,0,0,1,1.37-1.15,5.09,5.09,0,0,1,2.69-.59,3.94,3.94,0,0,1,3.08,1.22,5.18,5.18,0,0,1,1.1,3.61v10.47h-2v-10a4.41,4.41,0,0,0-.72-2.8,2.55,2.55,0,0,0-2.11-.89,4.29,4.29,0,0,0-2.9,1.05c-.29.26-.43.41-.43.45v12.21h-2Z"/><path d="M1108.13,341.82q-1.56-1.87-1.56-5.63a10.2,10.2,0,0,1,1.51-5.94,4.77,4.77,0,0,1,4.12-2.16,4.2,4.2,0,0,1,3.64,1.79,8.51,8.51,0,0,1,1.28,5.05,7.63,7.63,0,0,1,0,.93,4.09,4.09,0,0,1-.09.45h-8.32c0,4,1.33,6.06,4,6.06a3.81,3.81,0,0,0,1.88-.43,4.59,4.59,0,0,0,1.22-.93,1.93,1.93,0,0,0,.44-.59l.8.72a2.61,2.61,0,0,1-.52.77,5.26,5.26,0,0,1-1.54,1.21,5.05,5.05,0,0,1-2.5.57A5.34,5.34,0,0,1,1108.13,341.82Zm7.12-6.77,0-.57q0-5.1-3.08-5.1a2.8,2.8,0,0,0-2.5,1.4,9,9,0,0,0-1,4.27Z"/><path d="M1120,328.39h1.49l.3,3.09a4.48,4.48,0,0,1,.32-1,5.09,5.09,0,0,1,1-1.61,2.17,2.17,0,0,1,1.71-.75,4.28,4.28,0,0,1,1.18.2,8.14,8.14,0,0,1,.85.28l-.19,1.65a6.85,6.85,0,0,0-.87-.27,4.71,4.71,0,0,0-1.19-.18,1.8,1.8,0,0,0-1.36.59,3.89,3.89,0,0,0-.84,1.24,6.36,6.36,0,0,0-.36,1v10.8h-2Z"/><path d="M1135.42,342.72a3.46,3.46,0,0,1-1.1-2.72q0-4.41,7.78-5.31V333.1a4.84,4.84,0,0,0-.63-2.91,2.72,2.72,0,0,0-2.23-.78,4,4,0,0,0-1.45.29,7.32,7.32,0,0,0-1.25.6l-.65.4-.22-1.23a6.33,6.33,0,0,1,.7-.45,8.19,8.19,0,0,1,1.43-.63,5.31,5.31,0,0,1,1.74-.3,4.79,4.79,0,0,1,3.47,1.08c.73.72,1.1,2,1.1,3.81v7.35a4.4,4.4,0,0,0,.2,1.62q.21.42.51.42a2.2,2.2,0,0,0,.61-.1,2.76,2.76,0,0,0,.46-.17l.09,1-.94.33a3.89,3.89,0,0,1-1.21.24,1.32,1.32,0,0,1-1.1-.49,3.37,3.37,0,0,1-.46-1.76h0a2.33,2.33,0,0,1-.44.69,4.3,4.3,0,0,1-1.31,1.07,4.91,4.91,0,0,1-5.07-.48Zm5.22-.83a3.79,3.79,0,0,0,1.09-1.05,2.62,2.62,0,0,0,.37-.66V335.8A11.51,11.51,0,0,0,1138,337a2.92,2.92,0,0,0-1.61,2.76,2.64,2.64,0,0,0,.69,2,2.55,2.55,0,0,0,1.87.67A3,3,0,0,0,1140.64,341.89Z"/><path d="M1148.62,343.39V321l2-.12v22.56Z"/><path d="M1154.74,343.39V321l2-.12v22.56Z"/><path d="M1161.06,325a1.49,1.49,0,0,1,0-1.92,1,1,0,0,1,.8-.33,1.1,1.1,0,0,1,.82.3,1.48,1.48,0,0,1,.33,1,1.51,1.51,0,0,1-.33,1,1.23,1.23,0,0,1-.82.33A1,1,0,0,1,1161.06,325Zm-.22,18.36v-15h2v15Z"/><path d="M1167,350a4.45,4.45,0,0,1-1.51-3.65,4.36,4.36,0,0,1,.65-2.52,3.87,3.87,0,0,1,1.63-1.41,2.8,2.8,0,0,1-.49-1.77,3.18,3.18,0,0,1,1.26-2.52,4.25,4.25,0,0,1-1.7-1.81,6.18,6.18,0,0,1-.61-2.87,4.72,4.72,0,0,1,5.06-5.31,5.57,5.57,0,0,1,1.9.3l3.54,0v1.17l-1.76.06a5.8,5.8,0,0,1,1.1,3.75,5.63,5.63,0,0,1-1.28,4,4.57,4.57,0,0,1-3.53,1.38,6.23,6.23,0,0,1-1.68-.21,1.94,1.94,0,0,0-1,1.56,1.16,1.16,0,0,0,.61,1.13,4.46,4.46,0,0,0,2,.31q6,0,6,4.62a4.67,4.67,0,0,1-1.5,3.75,6.35,6.35,0,0,1-4.27,1.29A6.82,6.82,0,0,1,1167,350Zm7.39-1a3,3,0,0,0,1.05-2.48q0-3.15-4.48-3.15a7.13,7.13,0,0,1-2.06-.24,2.93,2.93,0,0,0-1.33,1.16,3.61,3.61,0,0,0-.51,2,3.2,3.2,0,0,0,1.14,2.69,5.15,5.15,0,0,0,3.23.88A4.54,4.54,0,0,0,1174.36,349Zm-.27-15.62a4.81,4.81,0,0,0-.77-3.07,2.68,2.68,0,0,0-2.17-.92,2.81,2.81,0,0,0-2.21.9,4.67,4.67,0,0,0-.81,3.12,5.07,5.07,0,0,0,.79,3.09,2.68,2.68,0,0,0,2.26,1.05Q1174.09,337.54,1174.09,333.37Z"/><path d="M1179.89,341.82q-1.58-1.87-1.57-5.63a10.28,10.28,0,0,1,1.51-5.94,4.78,4.78,0,0,1,4.13-2.16,4.22,4.22,0,0,1,3.64,1.79,8.58,8.58,0,0,1,1.28,5.05,5.85,5.85,0,0,1-.06.93c0,.24-.07.39-.08.45h-8.33q0,6.06,4,6.06a3.79,3.79,0,0,0,1.88-.43,4.65,4.65,0,0,0,1.23-.93,2.16,2.16,0,0,0,.44-.59l.79.72a2.61,2.61,0,0,1-.52.77,5.26,5.26,0,0,1-1.54,1.21,5,5,0,0,1-2.5.57A5.3,5.3,0,0,1,1179.89,341.82Zm7.12-6.77,0-.57q0-5.1-3.07-5.1a2.81,2.81,0,0,0-2.51,1.4,9.05,9.05,0,0,0-1,4.27Z"/><path d="M1194.81,343.39l-4.7-15h2.36l3.58,12.63,3.79-12.63h1.51l-4.73,15Z"/><path d="M1204,341.82q-1.57-1.87-1.57-5.63a10.2,10.2,0,0,1,1.51-5.94,4.77,4.77,0,0,1,4.12-2.16,4.23,4.23,0,0,1,3.65,1.79,8.59,8.59,0,0,1,1.27,5.05,6,6,0,0,1,0,.93c0,.24-.07.39-.08.45h-8.33q0,6.06,4,6.06a3.81,3.81,0,0,0,1.88-.43,4.65,4.65,0,0,0,1.23-.93,2.16,2.16,0,0,0,.44-.59l.79.72a2.61,2.61,0,0,1-.52.77,5.26,5.26,0,0,1-1.54,1.21,5.05,5.05,0,0,1-2.5.57A5.3,5.3,0,0,1,1204,341.82Zm7.11-6.77,0-.57c0-3.4-1-5.1-3.08-5.1a2.8,2.8,0,0,0-2.5,1.4,9.05,9.05,0,0,0-1,4.27Z"/><path d="M1215.94,343.39V321l2-.12v22.56Z"/><path d="M970.16,172.25l6-19.5h2.44l5.91,19.5h-2.17l-1.87-6h-7l-1.86,6Zm3.71-7.23h6.27L977,154.49Z"/><path d="M987.2,172.25V149.81l2-.12v22.56Z"/><path d="M994.51,171.54a5.82,5.82,0,0,1-.72-3.31v-9.51h-1.42v-1.26l1.42-.18.75-4.77h1.26v4.74h3.52v1.47H995.8v9a7.1,7.1,0,0,0,.34,2.68,1.22,1.22,0,0,0,1.2.74,4.73,4.73,0,0,0,1.24-.15,2.41,2.41,0,0,0,.55-.18l.13,1.2a1.33,1.33,0,0,1-.34.19,4.16,4.16,0,0,1-.85.26,6.67,6.67,0,0,1-1.36.12A2.51,2.51,0,0,1,994.51,171.54Z"/><path d="M1002.48,153.89a1.46,1.46,0,0,1,0-1.92,1,1,0,0,1,.8-.33,1.12,1.12,0,0,1,.82.3,1.48,1.48,0,0,1,.33,1,1.51,1.51,0,0,1-.33,1,1.25,1.25,0,0,1-.82.33A1,1,0,0,1,1002.48,153.89Zm-.22,18.36v-15h2v15Z"/><path d="M1008.85,170.6a8.72,8.72,0,0,1-1.51-5.43,10.77,10.77,0,0,1,1.47-6A4.68,4.68,0,0,1,1013,157a5,5,0,0,1,1.89.31,4.06,4.06,0,0,1,1.19.69c.27.25.41.4.41.44h0v-8.58l2-.12v22.56h-1.71l-.22-1.77a3.93,3.93,0,0,1-1.18,1.36,3.86,3.86,0,0,1-2.47.71A4.84,4.84,0,0,1,1008.85,170.6Zm6.16,0a3.63,3.63,0,0,0,1.08-1,2.59,2.59,0,0,0,.38-.63v-9.21s-.13-.18-.38-.42a3.53,3.53,0,0,0-1-.66,3.6,3.6,0,0,0-1.53-.3,3.33,3.33,0,0,0-3.1,1.69,10.18,10.18,0,0,0-1,5,8.22,8.22,0,0,0,1,4.56,3.28,3.28,0,0,0,2.88,1.41A3.07,3.07,0,0,0,1015,170.61Z"/><path d="M1032,172.25l-4.69-15h2.36l3.57,12.63,3.79-12.63h1.52l-4.73,15Z"/><path d="M1041.12,153.89a1.46,1.46,0,0,1,0-1.92,1,1,0,0,1,.79-.33,1.13,1.13,0,0,1,.83.3,1.48,1.48,0,0,1,.33,1,1.51,1.51,0,0,1-.33,1,1.25,1.25,0,0,1-.83.33A1,1,0,0,1,1041.12,153.89Zm-.22,18.36v-15h2v15Z"/><path d="M1047,172.25V149.81l2-.12v22.56Z"/><path d="M1060,170.6a8.72,8.72,0,0,1-1.51-5.43,10.77,10.77,0,0,1,1.47-6,4.68,4.68,0,0,1,4.14-2.23,5,5,0,0,1,1.89.31,4.06,4.06,0,0,1,1.19.69c.27.25.41.4.41.44h0v-8.58l2-.12v22.56h-1.71l-.22-1.77a3.93,3.93,0,0,1-1.18,1.36,3.86,3.86,0,0,1-2.47.71A4.84,4.84,0,0,1,1060,170.6Zm6.16,0a3.63,3.63,0,0,0,1.08-1,2.59,2.59,0,0,0,.38-.63v-9.21s-.13-.18-.38-.42a3.53,3.53,0,0,0-1-.66,3.6,3.6,0,0,0-1.53-.3,3.33,3.33,0,0,0-3.1,1.69,10.18,10.18,0,0,0-1,5,8.22,8.22,0,0,0,1,4.56,3.28,3.28,0,0,0,2.88,1.41A3.07,3.07,0,0,0,1066.18,170.61Z"/><path d="M1073.65,171.57a3.43,3.43,0,0,1-1.09-2.71q0-4.41,7.77-5.31V162a4.84,4.84,0,0,0-.63-2.91,2.72,2.72,0,0,0-2.23-.78,4,4,0,0,0-1.45.28,7.32,7.32,0,0,0-1.25.6l-.65.41-.22-1.23a6.33,6.33,0,0,1,.7-.45,8.54,8.54,0,0,1,1.43-.63,5.32,5.32,0,0,1,1.75-.3,4.78,4.78,0,0,1,3.46,1.08c.73.72,1.1,2,1.1,3.81v7.35a4.4,4.4,0,0,0,.2,1.62q.21.42.51.42a2.26,2.26,0,0,0,.61-.11,2.68,2.68,0,0,0,.46-.16l.09,1-.94.33a3.89,3.89,0,0,1-1.21.24,1.33,1.33,0,0,1-1.1-.5,3.33,3.33,0,0,1-.46-1.75h0a2.33,2.33,0,0,1-.44.69,4.71,4.71,0,0,1-6.38.58Zm5.23-.82a3.88,3.88,0,0,0,1.08-1.05,2.62,2.62,0,0,0,.37-.66v-4.38a11.64,11.64,0,0,0-4.11,1.17,2.92,2.92,0,0,0-1.6,2.76,2.65,2.65,0,0,0,.68,2,2.56,2.56,0,0,0,1.87.68A3,3,0,0,0,1078.88,170.75Z"/><path d="M1086.85,157.25h1.64l.25,1.44a4.73,4.73,0,0,1,4.07-1.74,4,4,0,0,1,3.08,1.21,5.26,5.26,0,0,1,1.1,3.62v10.47h-2v-10a4.51,4.51,0,0,0-.71-2.81,2.57,2.57,0,0,0-2.12-.88,4.34,4.34,0,0,0-2.9,1.05c-.28.26-.43.41-.43.45v12.21h-2Z"/><path d="M1101.87,172.05a5,5,0,0,1-1.52-1.06,2.64,2.64,0,0,1-.51-.66l.69-1.05a3.05,3.05,0,0,0,.44.57,4.5,4.5,0,0,0,1.21.94,3.63,3.63,0,0,0,1.82.44,3,3,0,0,0,2.32-.84,2.89,2.89,0,0,0,.78-2,2.42,2.42,0,0,0-.4-1.44,2.73,2.73,0,0,0-1-.89,14.27,14.27,0,0,0-1.63-.7,16,16,0,0,1-1.93-.89,3.52,3.52,0,0,1-1.22-1.21,4.39,4.39,0,0,1,.77-5.15A4.78,4.78,0,0,1,1105,157a5.58,5.58,0,0,1,1.69.25,6.75,6.75,0,0,1,1.31.54l.63.38-.33,1.29a5.72,5.72,0,0,0-.55-.38,6.09,6.09,0,0,0-1.14-.55,4,4,0,0,0-1.44-.27,3,3,0,0,0-2.05.69,2.22,2.22,0,0,0-.78,1.74,2.48,2.48,0,0,0,.41,1.45,2.93,2.93,0,0,0,1,.92,18,18,0,0,0,1.66.75,13.6,13.6,0,0,1,2,.88,3.81,3.81,0,0,1,1.28,1.25,3.89,3.89,0,0,1,.52,2.1,4.51,4.51,0,0,1-1.24,3.25,4.76,4.76,0,0,1-3.63,1.31A5.45,5.45,0,0,1,1101.87,172.05Z"/><path d="M1112.65,170.67a8.62,8.62,0,0,1-1.57-5.62,10.2,10.2,0,0,1,1.52-5.94,4.76,4.76,0,0,1,4.12-2.16,4.21,4.21,0,0,1,3.64,1.78,8.62,8.62,0,0,1,1.28,5.06,5.85,5.85,0,0,1-.06.93,2.94,2.94,0,0,1-.08.45h-8.33q0,6.06,4,6.06a3.81,3.81,0,0,0,1.88-.44,4.59,4.59,0,0,0,1.22-.93,2.2,2.2,0,0,0,.44-.58l.8.72a2.8,2.8,0,0,1-.53.76,5.22,5.22,0,0,1-1.53,1.22,5.05,5.05,0,0,1-2.5.57A5.33,5.33,0,0,1,1112.65,170.67Zm7.12-6.76,0-.57q0-5.1-3.08-5.1a2.78,2.78,0,0,0-2.5,1.39,9,9,0,0,0-1,4.28Z"/><path d="M1131,157.25h1.65l.25,1.59a6.15,6.15,0,0,1,1.43-1.25,4.28,4.28,0,0,1,2.44-.64,3.44,3.44,0,0,1,1.83.43,2.67,2.67,0,0,1,1.06,1.4,5.54,5.54,0,0,1,1.45-1.2,4.79,4.79,0,0,1,2.56-.63,3.06,3.06,0,0,1,2.53,1,5.32,5.32,0,0,1,.8,3.3v11h-2V161.48a4,4,0,0,0-.5-2.36,1.87,1.87,0,0,0-1.56-.61,3.08,3.08,0,0,0-1.88.55,4.51,4.51,0,0,0-1.12,1.1q.06.66.06,1.05v11h-2V161.48a4.08,4.08,0,0,0-.48-2.34,1.79,1.79,0,0,0-1.52-.63,3.21,3.21,0,0,0-1.94.57,3.74,3.74,0,0,0-1.06,1v12.12h-2Z"/><path d="M1151.43,170.67q-1.58-1.87-1.57-5.62a10.2,10.2,0,0,1,1.51-5.94,4.77,4.77,0,0,1,4.12-2.16,4.23,4.23,0,0,1,3.65,1.78,8.62,8.62,0,0,1,1.27,5.06,6,6,0,0,1-.05.93c0,.24-.07.39-.08.45H1152q0,6.06,4,6.06a3.81,3.81,0,0,0,1.88-.44,4.65,4.65,0,0,0,1.23-.93,2.2,2.2,0,0,0,.44-.58l.79.72a2.64,2.64,0,0,1-.52.76,5.28,5.28,0,0,1-1.54,1.22,5.05,5.05,0,0,1-2.5.57A5.31,5.31,0,0,1,1151.43,170.67Zm7.11-6.76,0-.57c0-3.4-1-5.1-3.08-5.1a2.79,2.79,0,0,0-2.5,1.39,9.1,9.1,0,0,0-1,4.28Z"/><path d="M1163.82,170.6a8.66,8.66,0,0,1-1.51-5.43,10.77,10.77,0,0,1,1.47-6,4.68,4.68,0,0,1,4.14-2.23,5,5,0,0,1,1.89.31,3.86,3.86,0,0,1,1.18.69c.28.25.42.4.42.44h0v-8.58l2-.12v22.56h-1.7l-.22-1.77a4,4,0,0,1-1.18,1.36,3.87,3.87,0,0,1-2.48.71A4.83,4.83,0,0,1,1163.82,170.6Zm6.16,0a3.76,3.76,0,0,0,1.08-1,2.37,2.37,0,0,0,.37-.63v-9.21s-.12-.18-.37-.42a3.53,3.53,0,0,0-1-.66,3.6,3.6,0,0,0-1.53-.3,3.33,3.33,0,0,0-3.1,1.69,10.18,10.18,0,0,0-1,5,8.22,8.22,0,0,0,1,4.56,3.27,3.27,0,0,0,2.87,1.41A3.09,3.09,0,0,0,1170,170.61Z"/><path d="M1184.41,170.6a8.66,8.66,0,0,1-1.52-5.43,10.77,10.77,0,0,1,1.47-6,4.68,4.68,0,0,1,4.14-2.23,5.07,5.07,0,0,1,1.9.31,4.12,4.12,0,0,1,1.18.69c.27.25.41.4.41.44h0v-8.58l2-.12v22.56h-1.71l-.22-1.77a3.93,3.93,0,0,1-1.18,1.36,3.86,3.86,0,0,1-2.47.71A4.81,4.81,0,0,1,1184.41,170.6Zm6.15,0a3.81,3.81,0,0,0,1.09-1,2.76,2.76,0,0,0,.37-.63v-9.21s-.13-.18-.37-.42a3.75,3.75,0,0,0-1-.66,3.6,3.6,0,0,0-1.53-.3,3.33,3.33,0,0,0-3.1,1.69,10.18,10.18,0,0,0-1,5,8.12,8.12,0,0,0,1,4.56,3.26,3.26,0,0,0,2.87,1.41A3.05,3.05,0,0,0,1190.56,170.61Z"/><path d="M1198.31,153.89a1.46,1.46,0,0,1,0-1.92,1,1,0,0,1,.8-.33,1.1,1.1,0,0,1,.82.3,1.48,1.48,0,0,1,.33,1,1.51,1.51,0,0,1-.33,1,1.23,1.23,0,0,1-.82.33A1,1,0,0,1,1198.31,153.89Zm-.22,18.36v-15h2v15Z"/><path d="M1204.22,178.8a5.2,5.2,0,0,1-.87-6.16,3.9,3.9,0,0,1,1.64-1.41,2.8,2.8,0,0,1-.5-1.77,3.19,3.19,0,0,1,1.27-2.52,4.36,4.36,0,0,1-1.71-1.82,6.26,6.26,0,0,1-.6-2.86,4.72,4.72,0,0,1,5.06-5.31,5.51,5.51,0,0,1,1.89.3l3.55,0v1.17l-1.76.06a5.8,5.8,0,0,1,1.1,3.75,5.63,5.63,0,0,1-1.28,4,4.57,4.57,0,0,1-3.53,1.38,6.23,6.23,0,0,1-1.68-.21,1.94,1.94,0,0,0-1,1.56,1.14,1.14,0,0,0,.61,1.12,4.44,4.44,0,0,0,2,.32q6,0,6,4.62a4.67,4.67,0,0,1-1.5,3.75,6.38,6.38,0,0,1-4.28,1.29A6.81,6.81,0,0,1,1204.22,178.8Zm7.39-1a3,3,0,0,0,1.05-2.47c0-2.1-1.5-3.15-4.48-3.15a7.13,7.13,0,0,1-2.06-.24,3,3,0,0,0-1.34,1.15,3.64,3.64,0,0,0-.51,2,3.16,3.16,0,0,0,1.15,2.68,5.12,5.12,0,0,0,3.22.89A4.55,4.55,0,0,0,1211.61,177.84Zm-.27-15.61a4.84,4.84,0,0,0-.77-3.08,2.69,2.69,0,0,0-2.17-.91,2.84,2.84,0,0,0-2.22.9,4.67,4.67,0,0,0-.81,3.12,5.07,5.07,0,0,0,.8,3.09,2.66,2.66,0,0,0,2.25,1.05Q1211.34,166.4,1211.34,162.23Z"/><path d="M83.75,449.2l6-19.5h2.45l5.91,19.5H96l-1.86-6h-7l-1.87,6ZM87.46,442h6.27l-3.11-10.53Z"/><path d="M100.79,449.2V426.76l2-.12V449.2Z"/><path d="M108.1,448.5a5.87,5.87,0,0,1-.71-3.32v-9.51H106v-1.26l1.43-.18.74-4.77h1.26v4.74h3.52v1.47h-3.52v9a7.14,7.14,0,0,0,.35,2.69,1.2,1.2,0,0,0,1.19.73,4.73,4.73,0,0,0,1.24-.15,2.19,2.19,0,0,0,.55-.18l.14,1.2a1.34,1.34,0,0,1-.35.19,4,4,0,0,1-.85.26,6.67,6.67,0,0,1-1.36.12A2.52,2.52,0,0,1,108.1,448.5Z"/><path d="M116.07,430.84a1.46,1.46,0,0,1,0-1.92,1,1,0,0,1,.8-.33,1.1,1.1,0,0,1,.82.3,1.48,1.48,0,0,1,.33,1,1.51,1.51,0,0,1-.33,1,1.23,1.23,0,0,1-.82.33A1,1,0,0,1,116.07,430.84Zm-.22,18.36v-15h2v15Z"/><path d="M122.45,447.55a8.66,8.66,0,0,1-1.52-5.43,10.77,10.77,0,0,1,1.47-6,4.7,4.7,0,0,1,4.14-2.23,5.07,5.07,0,0,1,1.9.31,4.13,4.13,0,0,1,1.18.7c.27.25.41.39.41.43h0v-8.58l2-.12V449.2h-1.71l-.22-1.77a3.85,3.85,0,0,1-3.65,2.07A4.81,4.81,0,0,1,122.45,447.55Zm6.15,0a4,4,0,0,0,1.09-1,2.76,2.76,0,0,0,.37-.63v-9.21s-.13-.18-.37-.42a3.75,3.75,0,0,0-1-.66,3.58,3.58,0,0,0-1.52-.3A3.34,3.34,0,0,0,124,437a10.14,10.14,0,0,0-1,5,8.21,8.21,0,0,0,1,4.56A3.26,3.26,0,0,0,126.9,448,3,3,0,0,0,128.6,447.57Z"/><path d="M143.11,435.67h-1.43v-1.26l1.43-.18v-2.16a8.57,8.57,0,0,1,.83-4.28,3,3,0,0,1,2.77-1.36,4.18,4.18,0,0,1,1.24.19,5.64,5.64,0,0,1,.93.41l.44.27-.27,1.17-.36-.22a3.7,3.7,0,0,0-.71-.32,2.85,2.85,0,0,0-.91-.15,1.6,1.6,0,0,0-1.15.39,2.54,2.54,0,0,0-.62,1.38,14,14,0,0,0-.21,2.76v1.89h4v1.47h-4V449.2h-2Z"/><path d="M150.67,448.53a3.46,3.46,0,0,1-1.1-2.72q0-4.41,7.78-5.31v-1.59a4.84,4.84,0,0,0-.63-2.91,2.75,2.75,0,0,0-2.23-.78,4.29,4.29,0,0,0-1.46.28,8.6,8.6,0,0,0-1.25.61l-.64.4-.22-1.23a5.43,5.43,0,0,1,.7-.45,7.86,7.86,0,0,1,1.43-.63,5.26,5.26,0,0,1,1.74-.3,4.77,4.77,0,0,1,3.46,1.08c.74.72,1.1,2,1.1,3.81v7.35a4.14,4.14,0,0,0,.21,1.62q.21.42.51.42a2.19,2.19,0,0,0,.6-.1,3.85,3.85,0,0,0,.47-.17l.08,1c-.14.06-.46.17-.93.33a4,4,0,0,1-1.21.24,1.31,1.31,0,0,1-1.1-.5,3.32,3.32,0,0,1-.47-1.75h0a2.11,2.11,0,0,1-.44.69,4.24,4.24,0,0,1-1.3,1.06,4.31,4.31,0,0,1-2.16.5A4.21,4.21,0,0,1,150.67,448.53Zm5.22-.83a3.79,3.79,0,0,0,1.09-1.05,3.07,3.07,0,0,0,.37-.66v-4.38a11.51,11.51,0,0,0-4.11,1.17,2.92,2.92,0,0,0-1.61,2.76,2.6,2.6,0,0,0,.69,2,2.52,2.52,0,0,0,1.87.68A3,3,0,0,0,155.89,447.7ZM153.32,432a2.91,2.91,0,0,1-.67-2.07,3,3,0,0,1,.68-2.07,2.43,2.43,0,0,1,3.51,0,2.9,2.9,0,0,1,.7,2.07,3,3,0,0,1-.67,2.07,2.55,2.55,0,0,1-3.55,0Zm3-.55a2.21,2.21,0,0,0,.45-1.52,2.18,2.18,0,0,0-.45-1.51,1.55,1.55,0,0,0-1.2-.5,1.59,1.59,0,0,0-1.21.51,2.71,2.71,0,0,0,0,3,1.61,1.61,0,0,0,1.21.49A1.54,1.54,0,0,0,156.29,431.4Z"/><path d="M163.83,434.2h1.49l.3,3.09a4.64,4.64,0,0,1,.32-1,5.16,5.16,0,0,1,1-1.6,2.17,2.17,0,0,1,1.7-.75,4.64,4.64,0,0,1,1.19.19c.44.14.72.23.85.29l-.19,1.65a6.85,6.85,0,0,0-.87-.27,4.71,4.71,0,0,0-1.19-.18,1.84,1.84,0,0,0-1.37.59,4,4,0,0,0-.83,1.24,6.36,6.36,0,0,0-.36,1v10.8h-2Z"/><path d="M179.77,447.55a8.66,8.66,0,0,1-1.51-5.43,10.77,10.77,0,0,1,1.47-6,4.7,4.7,0,0,1,4.14-2.23,5,5,0,0,1,1.89.31,4.06,4.06,0,0,1,1.19.7c.27.25.41.39.41.43h0v-8.58l2-.12V449.2h-1.7l-.22-1.77a4,4,0,0,1-1.18,1.36,3.86,3.86,0,0,1-2.47.71A4.84,4.84,0,0,1,179.77,447.55Zm6.16,0a3.93,3.93,0,0,0,1.08-1,2.59,2.59,0,0,0,.38-.63v-9.21s-.13-.18-.38-.42a3.53,3.53,0,0,0-1-.66,3.6,3.6,0,0,0-1.53-.3,3.34,3.34,0,0,0-3.1,1.7,10.14,10.14,0,0,0-1,5,8.22,8.22,0,0,0,1,4.56,3.27,3.27,0,0,0,2.87,1.41A3.08,3.08,0,0,0,185.93,447.57Z"/><path d="M193.68,430.84a1.46,1.46,0,0,1,0-1.92,1,1,0,0,1,.79-.33,1.13,1.13,0,0,1,.83.3,1.48,1.48,0,0,1,.33,1,1.51,1.51,0,0,1-.33,1,1.25,1.25,0,0,1-.83.33A1,1,0,0,1,193.68,430.84Zm-.22,18.36v-15h2v15Z"/><path d="M199.59,455.75a5.15,5.15,0,0,1-.87-6.16,3.9,3.9,0,0,1,1.64-1.41,2.8,2.8,0,0,1-.5-1.77,3.18,3.18,0,0,1,1.26-2.52,4.25,4.25,0,0,1-1.7-1.81,6.31,6.31,0,0,1-.6-2.87,4.7,4.7,0,0,1,5.05-5.31,5.53,5.53,0,0,1,1.9.3l3.54,0v1.17l-1.75.06a5.8,5.8,0,0,1,1.1,3.75,5.63,5.63,0,0,1-1.28,4,4.57,4.57,0,0,1-3.53,1.38,6.13,6.13,0,0,1-1.68-.21,1.94,1.94,0,0,0-1,1.56,1.17,1.17,0,0,0,.6,1.13,4.49,4.49,0,0,0,1.95.31c4,0,6,1.54,6,4.62a4.67,4.67,0,0,1-1.5,3.75A6.33,6.33,0,0,1,204,457,6.79,6.79,0,0,1,199.59,455.75Zm7.39-1a3,3,0,0,0,1-2.47q0-3.15-4.48-3.15a7.17,7.17,0,0,1-2.06-.24,3,3,0,0,0-1.33,1.15,3.67,3.67,0,0,0-.51,2,3.21,3.21,0,0,0,1.14,2.69,5.24,5.24,0,0,0,3.23.88A4.53,4.53,0,0,0,207,454.79Zm-.28-15.61a4.74,4.74,0,0,0-.77-3.07,2.67,2.67,0,0,0-2.17-.92,2.83,2.83,0,0,0-2.21.9,4.67,4.67,0,0,0-.81,3.12,5.07,5.07,0,0,0,.8,3.09,2.66,2.66,0,0,0,2.25,1.05Q206.7,443.35,206.7,439.18Z"/><path d="M219.56,448.5a6,6,0,0,1-.71-3.32v-9.51h-1.43v-1.26l1.43-.18.74-4.77h1.27v4.74h3.51v1.47h-3.51v9a7.19,7.19,0,0,0,.34,2.69,1.22,1.22,0,0,0,1.2.73,4.66,4.66,0,0,0,1.23-.15,2.19,2.19,0,0,0,.55-.18l.14,1.2a1.22,1.22,0,0,1-.34.19,4.29,4.29,0,0,1-.86.26,6.6,6.6,0,0,1-1.36.12A2.52,2.52,0,0,1,219.56,448.5Z"/><path d="M227.53,430.84a1.49,1.49,0,0,1,0-1.92,1,1,0,0,1,.8-.33,1.14,1.14,0,0,1,.83.3,1.48,1.48,0,0,1,.33,1,1.51,1.51,0,0,1-.33,1,1.27,1.27,0,0,1-.83.33A1,1,0,0,1,227.53,430.84Zm-.22,18.36v-15h2v15Z"/><path d="M233.44,449.2V426.76l2-.12V449.2Z"/><path d="M245.89,448.53a3.46,3.46,0,0,1-1.1-2.72q0-4.41,7.78-5.31v-1.59a4.84,4.84,0,0,0-.63-2.91,2.74,2.74,0,0,0-2.23-.78,4.23,4.23,0,0,0-1.45.28,8.27,8.27,0,0,0-1.26.61l-.64.4-.22-1.23a5.43,5.43,0,0,1,.7-.45,8.19,8.19,0,0,1,1.43-.63,5.31,5.31,0,0,1,1.74-.3,4.81,4.81,0,0,1,3.47,1.08c.73.72,1.1,2,1.1,3.81v7.35a4.4,4.4,0,0,0,.2,1.62q.21.42.51.42a2.2,2.2,0,0,0,.61-.1,4.19,4.19,0,0,0,.46-.17l.08,1q-.21.09-.93.33a4,4,0,0,1-1.21.24,1.31,1.31,0,0,1-1.1-.5,3.41,3.41,0,0,1-.47-1.75h0a2.33,2.33,0,0,1-.44.69A4.41,4.41,0,0,1,251,449a4.88,4.88,0,0,1-5.07-.47Zm5.22-.83a3.79,3.79,0,0,0,1.09-1.05,2.62,2.62,0,0,0,.37-.66v-4.38a11.51,11.51,0,0,0-4.11,1.17,2.92,2.92,0,0,0-1.61,2.76,2.6,2.6,0,0,0,.69,2,2.52,2.52,0,0,0,1.87.68A3,3,0,0,0,251.11,447.7Z"/><path d="M260.26,448.5a6,6,0,0,1-.71-3.32v-9.51h-1.43v-1.26l1.43-.18.74-4.77h1.27v4.74h3.51v1.47h-3.51v9a7.19,7.19,0,0,0,.34,2.69,1.22,1.22,0,0,0,1.2.73,4.66,4.66,0,0,0,1.23-.15,2.19,2.19,0,0,0,.55-.18l.14,1.2a1.22,1.22,0,0,1-.34.19,4.29,4.29,0,0,1-.86.26,6.6,6.6,0,0,1-1.36.12A2.52,2.52,0,0,1,260.26,448.5Z"/><path d="M274.44,455.75a5.17,5.17,0,0,1-.86-6.16,3.87,3.87,0,0,1,1.63-1.41,2.8,2.8,0,0,1-.49-1.77,3.18,3.18,0,0,1,1.26-2.52,4.25,4.25,0,0,1-1.7-1.81,6.31,6.31,0,0,1-.6-2.87,4.7,4.7,0,0,1,5.05-5.31,5.53,5.53,0,0,1,1.9.3l3.54,0v1.17l-1.75.06a5.8,5.8,0,0,1,1.09,3.75,5.63,5.63,0,0,1-1.27,4,4.6,4.6,0,0,1-3.54,1.38,6.1,6.1,0,0,1-1.67-.21,1.94,1.94,0,0,0-1,1.56,1.17,1.17,0,0,0,.6,1.13,4.46,4.46,0,0,0,1.95.31q6,0,6,4.62a4.67,4.67,0,0,1-1.5,3.75,6.35,6.35,0,0,1-4.27,1.29A6.84,6.84,0,0,1,274.44,455.75Zm7.4-1a3,3,0,0,0,1-2.47q0-3.15-4.48-3.15a7.13,7.13,0,0,1-2.06-.24,3,3,0,0,0-1.33,1.15,3.67,3.67,0,0,0-.51,2,3.21,3.21,0,0,0,1.14,2.69,5.24,5.24,0,0,0,3.23.88A4.53,4.53,0,0,0,281.84,454.79Zm-.28-15.61a4.74,4.74,0,0,0-.77-3.07,2.67,2.67,0,0,0-2.17-.92,2.83,2.83,0,0,0-2.21.9,4.67,4.67,0,0,0-.81,3.12,5,5,0,0,0,.8,3.09,2.66,2.66,0,0,0,2.25,1.05Q281.56,443.35,281.56,439.18Z"/><path d="M286.81,434.2h1.49l.3,3.09a5,5,0,0,1,.31-1,5.2,5.2,0,0,1,1-1.6,2.17,2.17,0,0,1,1.7-.75,4.64,4.64,0,0,1,1.19.19c.43.14.72.23.85.29l-.2,1.65a6,6,0,0,0-.86-.27,4.72,4.72,0,0,0-1.2-.18,1.83,1.83,0,0,0-1.36.59,4.25,4.25,0,0,0-.84,1.24,7.24,7.24,0,0,0-.35,1v10.8h-2Z"/><path d="M296.07,430.84a1.49,1.49,0,0,1,0-1.92,1,1,0,0,1,.8-.33,1.1,1.1,0,0,1,.82.3,1.48,1.48,0,0,1,.33,1,1.51,1.51,0,0,1-.33,1,1.23,1.23,0,0,1-.82.33A1,1,0,0,1,296.07,430.84Zm-.22,18.36v-15h2v15Z"/><path d="M302,434.2h1.65l.25,1.44a5.19,5.19,0,0,1,1.37-1.15,5,5,0,0,1,2.69-.59,3.94,3.94,0,0,1,3.08,1.22,5.17,5.17,0,0,1,1.1,3.61V449.2h-2v-10a4.41,4.41,0,0,0-.72-2.8,2.56,2.56,0,0,0-2.11-.89,4.29,4.29,0,0,0-2.9,1.05c-.29.26-.43.41-.43.45V449.2h-2Z"/><path d="M316.57,447.62c-1-1.24-1.56-3.12-1.56-5.62a10.2,10.2,0,0,1,1.51-5.94,4.77,4.77,0,0,1,4.12-2.16,4.2,4.2,0,0,1,3.64,1.79,8.58,8.58,0,0,1,1.28,5.05,7.63,7.63,0,0,1-.05.93,4.09,4.09,0,0,1-.09.45H317.1c0,4,1.33,6.06,4,6.06a3.81,3.81,0,0,0,1.88-.43,4.59,4.59,0,0,0,1.22-.93,1.93,1.93,0,0,0,.44-.59l.8.72a2.5,2.5,0,0,1-.52.76,5.12,5.12,0,0,1-1.54,1.22,5.05,5.05,0,0,1-2.5.57A5.31,5.31,0,0,1,316.57,447.62Zm7.12-6.76,0-.57q0-5.1-3.08-5.1a2.81,2.81,0,0,0-2.5,1.39,9.12,9.12,0,0,0-1,4.28Z"/><path d="M99.41,307.39l.08-19.5.06.09,0-.09h2.56l6.29,16.71h0l6.29-16.71h2.42l.08,19.5h-2l-.08-16.71h0l-6.18,16.71h-1.68L101,290.68l-.06,16.71Z"/><path d="M121.75,306.72a3.45,3.45,0,0,1-1.09-2.72q0-4.41,7.77-5.31V297.1a4.84,4.84,0,0,0-.63-2.91,2.72,2.72,0,0,0-2.23-.78,4,4,0,0,0-1.45.29,7.32,7.32,0,0,0-1.25.6l-.65.4-.22-1.23a6.33,6.33,0,0,1,.7-.45,8.19,8.19,0,0,1,1.43-.63,5.32,5.32,0,0,1,1.75-.3,4.78,4.78,0,0,1,3.46,1.08c.73.72,1.1,2,1.1,3.81v7.35a4.14,4.14,0,0,0,.21,1.62c.13.28.3.42.5.42a2.2,2.2,0,0,0,.61-.1,3,3,0,0,0,.47-.17l.08,1-.94.33a3.89,3.89,0,0,1-1.21.24,1.32,1.32,0,0,1-1.1-.49,3.37,3.37,0,0,1-.46-1.76h0a2.33,2.33,0,0,1-.44.69,4.38,4.38,0,0,1-1.3,1.07,4.31,4.31,0,0,1-2.16.49A4.26,4.26,0,0,1,121.75,306.72Zm5.23-.83a3.88,3.88,0,0,0,1.08-1.05,2.62,2.62,0,0,0,.37-.66V299.8a11.64,11.64,0,0,0-4.11,1.17,2.92,2.92,0,0,0-1.6,2.76,2.68,2.68,0,0,0,.68,2,2.55,2.55,0,0,0,1.87.67A3,3,0,0,0,127,305.89Z"/><path d="M135,292.39h1.64l.25,1.44a5.26,5.26,0,0,1,1.38-1.15,5.09,5.09,0,0,1,2.69-.59,4,4,0,0,1,3.08,1.22,5.23,5.23,0,0,1,1.1,3.61v10.47h-2v-10a4.48,4.48,0,0,0-.71-2.8,2.58,2.58,0,0,0-2.12-.89,4.34,4.34,0,0,0-2.9,1.05c-.28.26-.43.41-.43.45v12.21h-2Z"/><path d="M149,314a5.21,5.21,0,0,1-.87-6.17,3.9,3.9,0,0,1,1.64-1.41,2.8,2.8,0,0,1-.5-1.77,3.16,3.16,0,0,1,1.27-2.52,4.22,4.22,0,0,1-1.71-1.81,6.31,6.31,0,0,1-.6-2.87,4.7,4.7,0,0,1,5.05-5.31,5.53,5.53,0,0,1,1.9.3l3.55,0v1.17l-1.76.06a5.8,5.8,0,0,1,1.1,3.75,5.63,5.63,0,0,1-1.28,4,4.57,4.57,0,0,1-3.53,1.38,6.13,6.13,0,0,1-1.68-.21,1.94,1.94,0,0,0-1,1.56,1.17,1.17,0,0,0,.6,1.13,4.52,4.52,0,0,0,1.95.31c4,0,6,1.54,6,4.62a4.67,4.67,0,0,1-1.5,3.75,6.33,6.33,0,0,1-4.27,1.29A6.79,6.79,0,0,1,149,314Zm7.39-1a3,3,0,0,0,1-2.48q0-3.15-4.48-3.15a7.17,7.17,0,0,1-2.06-.24,3,3,0,0,0-1.33,1.16,3.61,3.61,0,0,0-.51,2,3.2,3.2,0,0,0,1.14,2.69,5.17,5.17,0,0,0,3.23.88A4.59,4.59,0,0,0,156.41,313Zm-.28-15.62a4.81,4.81,0,0,0-.76-3.07,2.7,2.7,0,0,0-2.18-.92,2.83,2.83,0,0,0-2.21.9,4.67,4.67,0,0,0-.81,3.12,5.07,5.07,0,0,0,.8,3.09,2.66,2.66,0,0,0,2.25,1.05Q156.13,301.54,156.13,297.37Z"/><path d="M161.41,307.39V285l2-.12v22.56Z"/><path d="M168.06,305.82a8.65,8.65,0,0,1-1.57-5.63,10.2,10.2,0,0,1,1.52-5.94,4.76,4.76,0,0,1,4.12-2.16,4.22,4.22,0,0,1,3.64,1.79,8.58,8.58,0,0,1,1.28,5.05,5.85,5.85,0,0,1-.06.93,2.94,2.94,0,0,1-.08.45h-8.33q0,6.06,4,6.06a3.81,3.81,0,0,0,1.88-.43,4.59,4.59,0,0,0,1.22-.93,2.16,2.16,0,0,0,.44-.59l.8.72a2.87,2.87,0,0,1-.52.77,5.4,5.4,0,0,1-1.54,1.21,5.05,5.05,0,0,1-2.5.57A5.32,5.32,0,0,1,168.06,305.82Zm7.12-6.77,0-.57q0-5.1-3.08-5.1a2.79,2.79,0,0,0-2.5,1.4,8.92,8.92,0,0,0-1,4.27Z"/><path d="M180,292.39h1.48l.31,3.09a4.78,4.78,0,0,1,.31-1,5.13,5.13,0,0,1,1-1.61,2.17,2.17,0,0,1,1.7-.75,4.22,4.22,0,0,1,1.18.2,8.64,8.64,0,0,1,.86.28l-.2,1.65a6,6,0,0,0-.86-.27,4.72,4.72,0,0,0-1.2-.18,1.83,1.83,0,0,0-1.36.59,4.25,4.25,0,0,0-.84,1.24,7.24,7.24,0,0,0-.35,1v10.8h-2Z"/><path d="M195.35,306.72a3.46,3.46,0,0,1-1.1-2.72q0-4.41,7.78-5.31V297.1a4.84,4.84,0,0,0-.63-2.91,2.75,2.75,0,0,0-2.23-.78,4.08,4.08,0,0,0-1.46.29,7.71,7.71,0,0,0-1.25.6l-.64.4-.22-1.23a5.43,5.43,0,0,1,.7-.45,7.86,7.86,0,0,1,1.43-.63,5.26,5.26,0,0,1,1.74-.3,4.81,4.81,0,0,1,3.47,1.08c.73.72,1.09,2,1.09,3.81v7.35a4.14,4.14,0,0,0,.21,1.62q.21.42.51.42a2.13,2.13,0,0,0,.6-.1,2.64,2.64,0,0,0,.47-.17l.08,1q-.21.09-.93.33a4,4,0,0,1-1.21.24,1.31,1.31,0,0,1-1.1-.49,3.36,3.36,0,0,1-.47-1.76h0a2.33,2.33,0,0,1-.44.69,4.43,4.43,0,0,1-1.31,1.07,4.31,4.31,0,0,1-2.16.49A4.21,4.21,0,0,1,195.35,306.72Zm5.22-.83a3.79,3.79,0,0,0,1.09-1.05,3.07,3.07,0,0,0,.37-.66V299.8a11.51,11.51,0,0,0-4.11,1.17,2.92,2.92,0,0,0-1.61,2.76,2.64,2.64,0,0,0,.69,2,2.55,2.55,0,0,0,1.87.67A3,3,0,0,0,200.57,305.89Z"/><path d="M209.72,306.69a6,6,0,0,1-.71-3.32v-9.51h-1.43V292.6l1.43-.18.74-4.77H211v4.74h3.51v1.47H211v9a7.16,7.16,0,0,0,.34,2.69,1.21,1.21,0,0,0,1.19.73,4.73,4.73,0,0,0,1.24-.15,2.19,2.19,0,0,0,.55-.18l.14,1.2a1.37,1.37,0,0,1-.35.2,4.06,4.06,0,0,1-.85.25,6.6,6.6,0,0,1-1.36.12A2.52,2.52,0,0,1,209.72,306.69Z"/><path d="M224.45,293.86H223V292.6l1.43-.18v-2.16a8.5,8.5,0,0,1,.83-4.27,3,3,0,0,1,2.77-1.37,3.84,3.84,0,0,1,1.24.2,5,5,0,0,1,.93.4l.44.27-.27,1.17-.36-.22a3.7,3.7,0,0,0-.71-.32,2.85,2.85,0,0,0-.91-.15,1.6,1.6,0,0,0-1.15.39,2.61,2.61,0,0,0-.62,1.38,14,14,0,0,0-.21,2.76v1.89h4v1.47h-4v13.53h-2Z"/><path d="M232.53,312.58l1.95-5.58a5.26,5.26,0,0,1-2.25-2.65,11.5,11.5,0,0,1-.77-4.46,9.58,9.58,0,0,1,1.5-5.76,5.07,5.07,0,0,1,4.35-2,6,6,0,0,1,2.29.42l1.64-4.62,1,.18L240.5,293a5.42,5.42,0,0,1,2,2.66,11.72,11.72,0,0,1,.68,4.21,9.47,9.47,0,0,1-1.53,5.75,5.06,5.06,0,0,1-4.33,2.05,6.4,6.4,0,0,1-1.89-.27l-1.9,5.34Zm6.57-18.66a3.16,3.16,0,0,0-1.79-.51,3,3,0,0,0-2.83,1.61,10.25,10.25,0,0,0-.9,4.87c0,2.78.47,4.65,1.43,5.61Zm1.05,10.85a10.3,10.3,0,0,0,.9-4.88q0-3.66-1.12-5.19l-4,11.4a3.56,3.56,0,0,0,1.42.27A3,3,0,0,0,240.15,304.77Z"/><path d="M246.52,307.39V285l2-.12v22.56Z"/><path d="M253.17,305.82a8.65,8.65,0,0,1-1.57-5.63,10.2,10.2,0,0,1,1.52-5.94,4.76,4.76,0,0,1,4.12-2.16,4.22,4.22,0,0,1,3.64,1.79,8.58,8.58,0,0,1,1.28,5.05,5.85,5.85,0,0,1-.06.93,2.94,2.94,0,0,1-.08.45h-8.33q0,6.06,4,6.06a3.81,3.81,0,0,0,1.88-.43,4.59,4.59,0,0,0,1.22-.93,2.16,2.16,0,0,0,.44-.59l.8.72a2.87,2.87,0,0,1-.52.77,5.4,5.4,0,0,1-1.54,1.21,5.05,5.05,0,0,1-2.5.57A5.32,5.32,0,0,1,253.17,305.82Zm7.12-6.77,0-.57q0-5.1-3.08-5.1a2.79,2.79,0,0,0-2.5,1.4,8.92,8.92,0,0,0-1,4.27Z"/><path d="M272.05,293.86h-1.43V292.6l1.43-.18v-2.16a8.5,8.5,0,0,1,.83-4.27,3,3,0,0,1,2.77-1.37,3.88,3.88,0,0,1,1.24.2,5.26,5.26,0,0,1,.93.4l.44.27-.27,1.17-.36-.22a3.7,3.7,0,0,0-.71-.32A2.85,2.85,0,0,0,276,286a1.63,1.63,0,0,0-1.16.39,2.61,2.61,0,0,0-.61,1.38,14,14,0,0,0-.21,2.76v1.89h4v1.47h-4v13.53h-2Z"/><path d="M280.56,305.65a11.81,11.81,0,0,1,0-11.52,5.67,5.67,0,0,1,8.71,0,9.58,9.58,0,0,1,1.5,5.76,9.47,9.47,0,0,1-1.53,5.75,5.63,5.63,0,0,1-8.68,0Zm7.18-.88a13.49,13.49,0,0,0,0-9.74,3.29,3.29,0,0,0-5.66,0,13.51,13.51,0,0,0,0,9.75,3.3,3.3,0,0,0,5.66,0Z"/><path d="M293.84,292.39h1.49l.3,3.09a6.16,6.16,0,0,1,1.29-2.64,2.17,2.17,0,0,1,1.71-.75,4.28,4.28,0,0,1,1.18.2,8.14,8.14,0,0,1,.85.28l-.19,1.65a6.85,6.85,0,0,0-.87-.27,4.71,4.71,0,0,0-1.19-.18,1.8,1.8,0,0,0-1.36.59,3.89,3.89,0,0,0-.84,1.24,6.36,6.36,0,0,0-.36,1v10.8h-2Z"/><path d="M302.28,306.72a3.46,3.46,0,0,1-1.1-2.72q0-4.41,7.78-5.31V297.1a4.84,4.84,0,0,0-.63-2.91,2.74,2.74,0,0,0-2.23-.78,4.08,4.08,0,0,0-1.46.29,7.71,7.71,0,0,0-1.25.6l-.64.4-.22-1.23a5.43,5.43,0,0,1,.7-.45,7.86,7.86,0,0,1,1.43-.63,5.31,5.31,0,0,1,1.74-.3,4.81,4.81,0,0,1,3.47,1.08c.73.72,1.1,2,1.1,3.81v7.35a4.19,4.19,0,0,0,.2,1.62q.21.42.51.42a2.13,2.13,0,0,0,.6-.1,2.64,2.64,0,0,0,.47-.17l.08,1q-.21.09-.93.33a4,4,0,0,1-1.21.24,1.31,1.31,0,0,1-1.1-.49,3.36,3.36,0,0,1-.47-1.76h0a2.33,2.33,0,0,1-.44.69,4.43,4.43,0,0,1-1.31,1.07,4.29,4.29,0,0,1-2.16.49A4.21,4.21,0,0,1,302.28,306.72Zm5.22-.83a3.79,3.79,0,0,0,1.09-1.05,2.62,2.62,0,0,0,.37-.66V299.8a11.51,11.51,0,0,0-4.11,1.17,2.92,2.92,0,0,0-1.61,2.76,2.64,2.64,0,0,0,.69,2,2.55,2.55,0,0,0,1.87.67A3,3,0,0,0,307.5,305.89Zm-2.57-15.75a3.49,3.49,0,0,1,0-4.14,2.26,2.26,0,0,1,1.76-.75,2.29,2.29,0,0,1,1.74.75,3.47,3.47,0,0,1,0,4.14,2.55,2.55,0,0,1-3.55,0Zm3-.55a2.21,2.21,0,0,0,.45-1.52,2.18,2.18,0,0,0-.45-1.51,1.54,1.54,0,0,0-1.19-.5,1.56,1.56,0,0,0-1.21.51,2.66,2.66,0,0,0,0,3,1.58,1.58,0,0,0,1.21.49A1.53,1.53,0,0,0,307.9,289.59Z"/><path d="M315.44,292.39h1.49l.3,3.09a6.16,6.16,0,0,1,1.29-2.64,2.17,2.17,0,0,1,1.71-.75,4.28,4.28,0,0,1,1.18.2,8.14,8.14,0,0,1,.85.28l-.19,1.65a6.85,6.85,0,0,0-.87-.27,4.71,4.71,0,0,0-1.19-.18,1.82,1.82,0,0,0-1.36.59,3.89,3.89,0,0,0-.84,1.24,7.63,7.63,0,0,0-.36,1v10.8h-2Z"/><path d="M324.62,305.82q-1.56-1.87-1.56-5.63a10.2,10.2,0,0,1,1.51-5.94,4.77,4.77,0,0,1,4.12-2.16,4.2,4.2,0,0,1,3.64,1.79,8.58,8.58,0,0,1,1.28,5.05,7.63,7.63,0,0,1-.05.93,4.09,4.09,0,0,1-.09.45h-8.32c0,4,1.33,6.06,4,6.06a3.81,3.81,0,0,0,1.88-.43,4.59,4.59,0,0,0,1.22-.93,1.93,1.93,0,0,0,.44-.59l.8.72a2.61,2.61,0,0,1-.52.77,5.26,5.26,0,0,1-1.54,1.21,5.05,5.05,0,0,1-2.5.57A5.34,5.34,0,0,1,324.62,305.82Zm7.12-6.77,0-.57q0-5.1-3.08-5.1a2.8,2.8,0,0,0-2.5,1.4,8.92,8.92,0,0,0-1,4.27Z"/><path d="M337.73,306.69a6,6,0,0,1-.71-3.32v-9.51h-1.43V292.6l1.43-.18.74-4.77H339v4.74h3.52v1.47H339v9a7.11,7.11,0,0,0,.35,2.69,1.2,1.2,0,0,0,1.19.73,4.73,4.73,0,0,0,1.24-.15,2.19,2.19,0,0,0,.55-.18l.14,1.2a1.37,1.37,0,0,1-.35.2,4.06,4.06,0,0,1-.85.25,6.6,6.6,0,0,1-1.36.12A2.52,2.52,0,0,1,337.73,306.69Z"/><path d="M1022.49,464.72h5.44a7.37,7.37,0,0,1,6,2.53q2.13,2.53,2.13,7.28t-2.1,7.2a7.42,7.42,0,0,1-6,2.49h-5.44Zm5.47,18.06q5.83,0,5.83-8.25t-5.86-8.37h-3.35v16.62Z"/><path d="M1040.3,483.3a5.23,5.23,0,0,1-1.1-3.61V469.22h2v10q0,3.69,2.86,3.69a3.88,3.88,0,0,0,1.7-.35,4.58,4.58,0,0,0,1.14-.73c.29-.26.43-.41.43-.45V469.22h2v15h-1.67l-.28-1.44a4.34,4.34,0,0,1-1.32,1.14,5,5,0,0,1-2.66.6A4,4,0,0,1,1040.3,483.3Z"/><path d="M1059.87,490.77a5.2,5.2,0,0,1-.87-6.16,3.9,3.9,0,0,1,1.64-1.41,2.8,2.8,0,0,1-.5-1.77,3.16,3.16,0,0,1,1.27-2.52,4.3,4.3,0,0,1-1.71-1.82,6.26,6.26,0,0,1-.6-2.86,4.71,4.71,0,0,1,5.06-5.31,5.51,5.51,0,0,1,1.89.3l3.55,0v1.17l-1.76.06a5.8,5.8,0,0,1,1.1,3.75,5.63,5.63,0,0,1-1.28,4,4.57,4.57,0,0,1-3.53,1.38,6.23,6.23,0,0,1-1.68-.21,1.94,1.94,0,0,0-1,1.56,1.15,1.15,0,0,0,.6,1.12,4.52,4.52,0,0,0,2,.32q6,0,6,4.62a4.67,4.67,0,0,1-1.49,3.75,6.38,6.38,0,0,1-4.28,1.29A6.81,6.81,0,0,1,1059.87,490.77Zm7.39-1a3,3,0,0,0,1-2.47c0-2.1-1.5-3.15-4.48-3.15a7.2,7.2,0,0,1-2.07-.24,3,3,0,0,0-1.33,1.15,3.64,3.64,0,0,0-.51,2,3.18,3.18,0,0,0,1.14,2.68,5.17,5.17,0,0,0,3.23.89A4.55,4.55,0,0,0,1067.26,489.81ZM1067,474.2a4.84,4.84,0,0,0-.77-3.08,2.69,2.69,0,0,0-2.17-.91,2.84,2.84,0,0,0-2.22.9,4.67,4.67,0,0,0-.81,3.12,5.07,5.07,0,0,0,.8,3.09,2.66,2.66,0,0,0,2.25,1.05Q1067,478.37,1067,474.2Z"/><path d="M1072.78,482.64q-1.56-1.87-1.56-5.62a10.2,10.2,0,0,1,1.51-5.94,4.77,4.77,0,0,1,4.12-2.16,4.2,4.2,0,0,1,3.64,1.78,8.54,8.54,0,0,1,1.28,5.06,7.63,7.63,0,0,1,0,.93,4.09,4.09,0,0,1-.09.45h-8.32c0,4,1.33,6.06,4,6.06a3.81,3.81,0,0,0,1.88-.44,4.59,4.59,0,0,0,1.22-.93,2,2,0,0,0,.44-.58l.8.72a2.64,2.64,0,0,1-.52.76,5.28,5.28,0,0,1-1.54,1.22,5.05,5.05,0,0,1-2.5.57A5.34,5.34,0,0,1,1072.78,482.64Zm7.12-6.76,0-.57q0-5.1-3.08-5.1a2.79,2.79,0,0,0-2.5,1.39,9.08,9.08,0,0,0-1,4.28Z"/><path d="M1084.68,469.22h1.49l.3,3.09a5.12,5.12,0,0,1,.32-1,5.05,5.05,0,0,1,1-1.6,2.17,2.17,0,0,1,1.71-.75,4.23,4.23,0,0,1,1.18.19,7.4,7.4,0,0,1,.85.29l-.19,1.65a6.85,6.85,0,0,0-.87-.27,4.71,4.71,0,0,0-1.19-.18,1.79,1.79,0,0,0-1.36.58,3.93,3.93,0,0,0-.84,1.25,7.63,7.63,0,0,0-.36,1v10.8h-2Z"/><path d="M1093.75,469.22h1.65l.25,1.44a5.2,5.2,0,0,1,1.37-1.16,5.13,5.13,0,0,1,2.7-.58,3.91,3.91,0,0,1,3.07,1.21,5.21,5.21,0,0,1,1.1,3.62v10.47h-2v-10a4.44,4.44,0,0,0-.72-2.81,2.54,2.54,0,0,0-2.11-.88,4.34,4.34,0,0,0-2.9,1.05c-.29.26-.43.41-.43.45v12.21h-2Z"/><path d="M1108.35,482.64q-1.57-1.87-1.57-5.62a10.2,10.2,0,0,1,1.51-5.94,4.77,4.77,0,0,1,4.12-2.16,4.2,4.2,0,0,1,3.64,1.78,8.54,8.54,0,0,1,1.28,5.06,7.63,7.63,0,0,1,0,.93c0,.24-.07.39-.08.45h-8.33q0,6.06,4,6.06a3.81,3.81,0,0,0,1.88-.44,4.65,4.65,0,0,0,1.23-.93,2.2,2.2,0,0,0,.44-.58l.79.72a2.64,2.64,0,0,1-.52.76,5.28,5.28,0,0,1-1.54,1.22,5.05,5.05,0,0,1-2.5.57A5.31,5.31,0,0,1,1108.35,482.64Zm7.11-6.76,0-.57q0-5.1-3.08-5.1a2.79,2.79,0,0,0-2.5,1.39,9.1,9.1,0,0,0-1,4.28Z"/><path d="M1129.67,484.22l-4.7-15h2.37l3.57,12.63,3.79-12.63h1.51l-4.72,15Z"/><path d="M1138.82,465.86a1.49,1.49,0,0,1,0-1.92,1,1,0,0,1,.8-.33,1.1,1.1,0,0,1,.82.3,1.48,1.48,0,0,1,.33,1,1.51,1.51,0,0,1-.33,1,1.23,1.23,0,0,1-.82.33A1,1,0,0,1,1138.82,465.86Zm-.22,18.36v-15h2v15Z"/><path d="M1144.73,484.22V461.78l2-.12v22.56Z"/><path d="M1157.81,470.69h-1.43v-1.26l1.43-.18v-2.16a8.54,8.54,0,0,1,.83-4.28,3,3,0,0,1,2.77-1.36,3.88,3.88,0,0,1,1.24.19,5.22,5.22,0,0,1,.93.41l.44.27-.27,1.17-.36-.23a3.74,3.74,0,0,0-.71-.31,2.85,2.85,0,0,0-.91-.15,1.59,1.59,0,0,0-1.15.39,2.54,2.54,0,0,0-.62,1.38,14,14,0,0,0-.21,2.76v1.89h4v1.47h-4v13.53h-2Z"/><path d="M1166.39,482.64q-1.58-1.87-1.57-5.62a10.2,10.2,0,0,1,1.51-5.94,4.77,4.77,0,0,1,4.12-2.16,4.2,4.2,0,0,1,3.64,1.78,8.54,8.54,0,0,1,1.28,5.06,7.63,7.63,0,0,1,0,.93c0,.24-.07.39-.08.45h-8.33q0,6.06,4,6.06a3.81,3.81,0,0,0,1.88-.44,4.65,4.65,0,0,0,1.23-.93,2.2,2.2,0,0,0,.44-.58l.79.72a2.64,2.64,0,0,1-.52.76,5.28,5.28,0,0,1-1.54,1.22,5.05,5.05,0,0,1-2.5.57A5.31,5.31,0,0,1,1166.39,482.64Zm7.11-6.76,0-.57q0-5.1-3.08-5.1a2.79,2.79,0,0,0-2.5,1.39,9.1,9.1,0,0,0-1,4.28Z"/><path d="M1175.81,491.87a2.41,2.41,0,0,1-.64-.3,1.54,1.54,0,0,1-.26-.21l.38-1.23.21.15a2.18,2.18,0,0,0,.48.22,2.06,2.06,0,0,0,.68.11,1.7,1.7,0,0,0,1.6-1.2,10.74,10.74,0,0,0,.52-4V469.22h2v16.23q0,6.57-3.88,6.57A3.48,3.48,0,0,1,1175.81,491.87Zm3.19-26a1.46,1.46,0,0,1,0-1.92,1,1,0,0,1,.8-.33,1.12,1.12,0,0,1,.82.3,1.48,1.48,0,0,1,.33,1,1.51,1.51,0,0,1-.33,1,1.23,1.23,0,0,1-.82.33A1,1,0,0,1,1179,465.86Z"/><path d="M1184.88,469.22h1.49l.3,3.09a4.79,4.79,0,0,1,.31-1,5.08,5.08,0,0,1,1-1.6,2.17,2.17,0,0,1,1.7-.75,4.12,4.12,0,0,1,1.18.19,7.1,7.1,0,0,1,.86.29l-.2,1.65a6,6,0,0,0-.86-.27,4.72,4.72,0,0,0-1.2-.18,1.82,1.82,0,0,0-1.36.58,4.07,4.07,0,0,0-.83,1.25,6.36,6.36,0,0,0-.36,1v10.8h-2Z"/><path d="M1194.06,482.64a8.62,8.62,0,0,1-1.57-5.62,10.28,10.28,0,0,1,1.51-5.94,4.79,4.79,0,0,1,4.13-2.16,4.21,4.21,0,0,1,3.64,1.78,8.62,8.62,0,0,1,1.28,5.06,5.85,5.85,0,0,1-.06.93,2.94,2.94,0,0,1-.08.45h-8.33q0,6.06,4,6.06a3.83,3.83,0,0,0,1.89-.44,4.59,4.59,0,0,0,1.22-.93,2.2,2.2,0,0,0,.44-.58l.8.72a2.8,2.8,0,0,1-.53.76,5.22,5.22,0,0,1-1.53,1.22,5.08,5.08,0,0,1-2.5.57A5.32,5.32,0,0,1,1194.06,482.64Zm7.12-6.76,0-.57q0-5.1-3.08-5.1a2.78,2.78,0,0,0-2.5,1.39,9,9,0,0,0-1,4.28Z"/><path d="M933.39,601.84h5.44a7.37,7.37,0,0,1,6,2.53q2.13,2.53,2.13,7.28t-2.1,7.2a7.45,7.45,0,0,1-6,2.49h-5.44Zm5.47,18.06q5.82,0,5.83-8.25t-5.86-8.37h-3.35V619.9Z"/><path d="M951.2,620.42a5.23,5.23,0,0,1-1.1-3.61V606.34h2v10q0,3.69,2.85,3.69a3.92,3.92,0,0,0,1.71-.35,5,5,0,0,0,1.14-.73q.42-.39.42-.45V606.34h2v15h-1.68l-.27-1.44A4.34,4.34,0,0,1,957,621a5,5,0,0,1-2.67.6A4,4,0,0,1,951.2,620.42Z"/><path d="M970.74,598.9l2-.12v8.91h0a4.42,4.42,0,0,1,1.71-1.23,5.7,5.7,0,0,1,2.22-.42,3.91,3.91,0,0,1,3.09,1.21,5.26,5.26,0,0,1,1.09,3.62v10.47h-2v-10.2q0-3.51-2.86-3.51a4.2,4.2,0,0,0-1.73.33,4.07,4.07,0,0,0-1.15.72q-.42.39-.42.45v12.21h-2Z"/><path d="M984.75,620.66a3.44,3.44,0,0,1-1.1-2.71q0-4.41,7.78-5.31v-1.59a4.84,4.84,0,0,0-.63-2.91,2.72,2.72,0,0,0-2.23-.78,4,4,0,0,0-1.45.28,7.32,7.32,0,0,0-1.25.6l-.65.41-.22-1.23a6.33,6.33,0,0,1,.7-.45,8.19,8.19,0,0,1,1.43-.63,5.32,5.32,0,0,1,1.75-.3,4.78,4.78,0,0,1,3.46,1.08c.73.72,1.1,2,1.1,3.81v7.35a4.4,4.4,0,0,0,.2,1.62q.21.42.51.42a2.26,2.26,0,0,0,.61-.11,3.07,3.07,0,0,0,.46-.16l.09,1-.94.33a3.89,3.89,0,0,1-1.21.24,1.33,1.33,0,0,1-1.1-.5,3.33,3.33,0,0,1-.46-1.75h0a2.33,2.33,0,0,1-.44.69,4.71,4.71,0,0,1-6.38.58Zm5.22-.82a3.79,3.79,0,0,0,1.09-1.05,2.62,2.62,0,0,0,.37-.66v-4.38a11.51,11.51,0,0,0-4.11,1.17,2.92,2.92,0,0,0-1.61,2.76,2.62,2.62,0,0,0,.69,2,2.56,2.56,0,0,0,1.87.68A3,3,0,0,0,990,619.84Z"/><path d="M997.92,606.34h1.48l.3,3.09a5.12,5.12,0,0,1,.32-1,5.05,5.05,0,0,1,1-1.6,2.17,2.17,0,0,1,1.71-.75,4.18,4.18,0,0,1,1.18.19,7.4,7.4,0,0,1,.85.29l-.19,1.65a6.85,6.85,0,0,0-.87-.27,4.65,4.65,0,0,0-1.19-.18,1.81,1.81,0,0,0-1.36.58,3.93,3.93,0,0,0-.84,1.25,9.54,9.54,0,0,0-.36,1v10.8h-2Z"/><path d="M1014.34,621.14a4.92,4.92,0,0,1-1.51-1.06,2.64,2.64,0,0,1-.51-.66l.68-1a3.05,3.05,0,0,0,.44.57,4.66,4.66,0,0,0,1.21.94,3.66,3.66,0,0,0,1.82.44,3,3,0,0,0,2.32-.84,2.89,2.89,0,0,0,.78-2,2.42,2.42,0,0,0-.4-1.44,2.73,2.73,0,0,0-1-.89,13.52,13.52,0,0,0-1.63-.7,15.1,15.1,0,0,1-1.92-.89,3.46,3.46,0,0,1-1.23-1.21,4.39,4.39,0,0,1,.77-5.15,4.79,4.79,0,0,1,3.29-1.12,5.62,5.62,0,0,1,1.69.25,6.62,6.62,0,0,1,1.3.54l.63.38-.33,1.29a5.8,5.8,0,0,0-1.69-.93,3.92,3.92,0,0,0-1.44-.27,3,3,0,0,0-2,.69,2.22,2.22,0,0,0-.78,1.74,2.48,2.48,0,0,0,.41,1.45,3,3,0,0,0,1,.92c.42.22,1,.47,1.67.75a13.42,13.42,0,0,1,2,.88,3.72,3.72,0,0,1,1.28,1.25,3.8,3.8,0,0,1,.52,2.1,4.51,4.51,0,0,1-1.24,3.25,4.75,4.75,0,0,1-3.62,1.31A5.53,5.53,0,0,1,1014.34,621.14Z"/><path d="M1024.52,620.66a3.44,3.44,0,0,1-1.1-2.71q0-4.41,7.78-5.31v-1.59a4.76,4.76,0,0,0-.64-2.91,2.71,2.71,0,0,0-2.22-.78,4.06,4.06,0,0,0-1.46.28,7.71,7.71,0,0,0-1.25.6l-.64.41-.22-1.23a5.43,5.43,0,0,1,.7-.45,7.86,7.86,0,0,1,1.43-.63,5.22,5.22,0,0,1,1.74-.3,4.77,4.77,0,0,1,3.46,1.08c.74.72,1.1,2,1.1,3.81v7.35a4.14,4.14,0,0,0,.21,1.62q.21.42.51.42a2.26,2.26,0,0,0,.6-.11,2.91,2.91,0,0,0,.47-.16l.08,1-.93.33a4,4,0,0,1-1.21.24,1.3,1.3,0,0,1-1.1-.5,3.32,3.32,0,0,1-.47-1.75h0a2.11,2.11,0,0,1-.44.69,4.24,4.24,0,0,1-1.3,1.06,4.31,4.31,0,0,1-2.16.5A4.22,4.22,0,0,1,1024.52,620.66Zm5.22-.82a3.79,3.79,0,0,0,1.09-1.05,3.07,3.07,0,0,0,.37-.66v-4.38a11.51,11.51,0,0,0-4.11,1.17,2.92,2.92,0,0,0-1.61,2.76,2.62,2.62,0,0,0,.69,2,2.54,2.54,0,0,0,1.87.68A3,3,0,0,0,1029.74,619.84Z"/><path d="M1040.29,621.34l-4.7-15H1038l3.57,12.63,3.79-12.63h1.51l-4.72,15Z"/><path d="M1049.25,606.34h1.65l.25,1.44a5.2,5.2,0,0,1,1.37-1.16,5.13,5.13,0,0,1,2.7-.58,3.91,3.91,0,0,1,3.07,1.21,5.21,5.21,0,0,1,1.1,3.62v10.47h-2v-10a4.44,4.44,0,0,0-.72-2.81,2.54,2.54,0,0,0-2.11-.88,4.34,4.34,0,0,0-2.9,1c-.29.26-.43.41-.43.45v12.21h-2Z"/><path d="M1063.84,619.76q-1.56-1.87-1.56-5.62a10.2,10.2,0,0,1,1.51-5.94,4.77,4.77,0,0,1,4.12-2.16,4.2,4.2,0,0,1,3.64,1.78,8.54,8.54,0,0,1,1.28,5.06,7.63,7.63,0,0,1,0,.93,4.09,4.09,0,0,1-.09.45h-8.32c0,4,1.33,6.06,4,6.06a3.81,3.81,0,0,0,1.88-.44,4.82,4.82,0,0,0,1.23-.93,2,2,0,0,0,.43-.58l.8.72a2.64,2.64,0,0,1-.52.76,5.28,5.28,0,0,1-1.54,1.22,5.05,5.05,0,0,1-2.5.57A5.34,5.34,0,0,1,1063.84,619.76ZM1071,613l0-.57q0-5.1-3.08-5.1a2.79,2.79,0,0,0-2.5,1.39,9.21,9.21,0,0,0-1,4.28Z"/><path d="M1077,620.63a5.91,5.91,0,0,1-.71-3.31v-9.51h-1.43v-1.26l1.43-.18.74-4.77h1.27v4.74h3.51v1.47h-3.51v9a7.1,7.1,0,0,0,.34,2.68,1.22,1.22,0,0,0,1.19.74,4.73,4.73,0,0,0,1.24-.15,2.19,2.19,0,0,0,.55-.18l.14,1.2a1.57,1.57,0,0,1-.34.19,4.29,4.29,0,0,1-.86.26,6.6,6.6,0,0,1-1.36.12A2.52,2.52,0,0,1,1077,620.63Z"/><path d="M97.46,584.71l6-19.5h2.44l5.91,19.5h-2.17l-1.87-6h-7l-1.87,6Zm3.71-7.23h6.27L104.33,567Z"/><path d="M114.5,584.71V562.27l2-.12v22.56Z"/><path d="M121.81,584a5.86,5.86,0,0,1-.72-3.32v-9.51h-1.42v-1.26l1.42-.18.75-4.77h1.26v4.74h3.52v1.47H123.1v9a7.37,7.37,0,0,0,.34,2.69,1.22,1.22,0,0,0,1.2.73,4.73,4.73,0,0,0,1.24-.15,2.41,2.41,0,0,0,.55-.18l.13,1.2a1.24,1.24,0,0,1-.34.2,4.26,4.26,0,0,1-.85.25A6.67,6.67,0,0,1,124,585,2.52,2.52,0,0,1,121.81,584Z"/><path d="M129.78,566.35a1.46,1.46,0,0,1,0-1.92,1,1,0,0,1,.8-.33,1.12,1.12,0,0,1,.82.3,1.48,1.48,0,0,1,.33,1,1.51,1.51,0,0,1-.33,1,1.25,1.25,0,0,1-.82.33A1,1,0,0,1,129.78,566.35Zm-.22,18.36v-15h2v15Z"/><path d="M136.15,583.06a8.72,8.72,0,0,1-1.51-5.43,10.74,10.74,0,0,1,1.47-6,4.68,4.68,0,0,1,4.14-2.24,5.06,5.06,0,0,1,1.9.32,4.12,4.12,0,0,1,1.18.69c.27.25.41.39.41.43h0v-8.58l2-.12v22.56H144l-.22-1.77a4,4,0,0,1-1.18,1.37,3.86,3.86,0,0,1-2.47.7A4.84,4.84,0,0,1,136.15,583.06Zm6.16,0a3.83,3.83,0,0,0,1.09-1,2.76,2.76,0,0,0,.37-.63v-9.21s-.13-.18-.37-.42a3.75,3.75,0,0,0-1-.66,3.6,3.6,0,0,0-1.53-.3,3.34,3.34,0,0,0-3.1,1.7,10.14,10.14,0,0,0-1,5,8.22,8.22,0,0,0,1,4.56,3.28,3.28,0,0,0,2.88,1.41A3,3,0,0,0,142.31,583.08Z"/><path d="M156.24,562.27l2-.12v8.91h0a4.31,4.31,0,0,1,1.7-1.23,5.79,5.79,0,0,1,2.23-.42,4,4,0,0,1,3.09,1.22,5.28,5.28,0,0,1,1.08,3.61v10.47h-2v-10.2c0-2.34-1-3.51-2.86-3.51a4.2,4.2,0,0,0-1.73.33,4.14,4.14,0,0,0-1.16.72,2,2,0,0,0-.41.45v12.21h-2Z"/><path d="M171.25,583.8a5.21,5.21,0,0,1-1.1-3.62V569.71h2v10c0,2.46,1,3.69,2.86,3.69a3.92,3.92,0,0,0,1.71-.34,5,5,0,0,0,1.14-.74q.42-.39.42-.45V569.71h2v15h-1.68l-.27-1.44a4.34,4.34,0,0,1-1.32,1.14,5,5,0,0,1-2.67.6A4,4,0,0,1,171.25,583.8Z"/><path d="M185.36,584.52a4.93,4.93,0,0,1-1.51-1.07,2.64,2.64,0,0,1-.51-.66l.69-1a2.59,2.59,0,0,0,.44.57,4.36,4.36,0,0,0,1.21,1,3.59,3.59,0,0,0,1.81.43,3,3,0,0,0,2.32-.84,2.9,2.9,0,0,0,.79-2,2.5,2.5,0,0,0-.4-1.44,2.87,2.87,0,0,0-1-.88,14.31,14.31,0,0,0-1.64-.71,16,16,0,0,1-1.92-.88,3.39,3.39,0,0,1-1.22-1.22,3.89,3.89,0,0,1-.51-2.1,3.84,3.84,0,0,1,1.27-3,4.82,4.82,0,0,1,3.29-1.13,5.58,5.58,0,0,1,1.69.26,6.37,6.37,0,0,1,1.3.54l.64.37-.33,1.29-.55-.37a6.73,6.73,0,0,0-1.14-.56,4,4,0,0,0-1.45-.27,3,3,0,0,0-2,.69,2.2,2.2,0,0,0-.79,1.74,2.45,2.45,0,0,0,.42,1.46,2.82,2.82,0,0,0,1,.91,16.86,16.86,0,0,0,1.66.75,13.34,13.34,0,0,1,2,.89,3.69,3.69,0,0,1,1.28,1.24,3.8,3.8,0,0,1,.52,2.1,4.57,4.57,0,0,1-1.23,3.26,4.78,4.78,0,0,1-3.63,1.3A5.53,5.53,0,0,1,185.36,584.52Z"/><path d="M195.6,584.71V562.27l2-.12v14.43l1.68-1.26,4.09-5.61h1.52l-4.54,6.15,5.11,8.85h-2.28l-4.37-7.56-1.21.81v6.75Z"/><path d="M208.68,583.14q-1.58-1.87-1.57-5.63a10.28,10.28,0,0,1,1.51-5.94,4.78,4.78,0,0,1,4.13-2.16,4.23,4.23,0,0,1,3.64,1.79,8.59,8.59,0,0,1,1.27,5,6,6,0,0,1,0,.93c0,.24-.06.39-.08.45H209.2q0,6.06,4,6.06a3.85,3.85,0,0,0,1.89-.43,4.75,4.75,0,0,0,1.22-.93,2.16,2.16,0,0,0,.44-.59l.79.72a2.61,2.61,0,0,1-.52.77,5.26,5.26,0,0,1-1.54,1.21,5,5,0,0,1-2.5.57A5.3,5.3,0,0,1,208.68,583.14Zm7.12-6.77,0-.57q0-5.1-3.07-5.1a2.81,2.81,0,0,0-2.51,1.4,9.05,9.05,0,0,0-1,4.27Z"/><path d="M220.58,569.71h1.48l.3,3.09a6.05,6.05,0,0,1,1.3-2.64,2.15,2.15,0,0,1,1.7-.75,4.22,4.22,0,0,1,1.18.2,8.14,8.14,0,0,1,.85.28l-.19,1.65a6.85,6.85,0,0,0-.87-.27,4.59,4.59,0,0,0-1.19-.18,1.82,1.82,0,0,0-1.36.59,3.89,3.89,0,0,0-.84,1.24,9.54,9.54,0,0,0-.36,1v10.8h-2Z"/><path d="M236,584a3.43,3.43,0,0,1-1.1-2.72q0-4.41,7.78-5.31v-1.59a4.83,4.83,0,0,0-.64-2.91,2.71,2.71,0,0,0-2.22-.78,4.08,4.08,0,0,0-1.46.29,7.71,7.71,0,0,0-1.25.6l-.65.4-.22-1.23a6.88,6.88,0,0,1,.71-.45,8.06,8.06,0,0,1,1.42-.63,5.32,5.32,0,0,1,1.75-.3,4.77,4.77,0,0,1,3.46,1.08c.73.72,1.1,2,1.1,3.81v7.35a4.14,4.14,0,0,0,.21,1.62c.14.28.3.42.51.42a2.19,2.19,0,0,0,.6-.1,3,3,0,0,0,.47-.17l.08,1-.93.33a4,4,0,0,1-1.21.24,1.3,1.3,0,0,1-1.1-.49,3.36,3.36,0,0,1-.47-1.76h0a2.11,2.11,0,0,1-.44.69,4.38,4.38,0,0,1-1.3,1.07,4.31,4.31,0,0,1-2.16.49A4.21,4.21,0,0,1,236,584Zm5.22-.83a3.62,3.62,0,0,0,1.08-1.05,2.88,2.88,0,0,0,.38-.66v-4.38a11.51,11.51,0,0,0-4.11,1.17,2.91,2.91,0,0,0-1.61,2.76,2.64,2.64,0,0,0,.69,2,2.53,2.53,0,0,0,1.86.67A3,3,0,0,0,241.19,583.21Z"/><path d="M250.34,584a5.87,5.87,0,0,1-.71-3.32v-9.51H248.2v-1.26l1.43-.18.74-4.77h1.26v4.74h3.52v1.47h-3.52v9a7.11,7.11,0,0,0,.35,2.69,1.19,1.19,0,0,0,1.19.73,4.73,4.73,0,0,0,1.24-.15,2.41,2.41,0,0,0,.55-.18l.13,1.2a1.24,1.24,0,0,1-.34.2,4.26,4.26,0,0,1-.85.25,6.67,6.67,0,0,1-1.36.12A2.52,2.52,0,0,1,250.34,584Z"/><path d="M265.47,584.52a4.93,4.93,0,0,1-1.51-1.07,2.64,2.64,0,0,1-.51-.66l.69-1a2.59,2.59,0,0,0,.44.57,4.45,4.45,0,0,0,1.2,1,3.66,3.66,0,0,0,1.82.43,3,3,0,0,0,2.32-.84,2.89,2.89,0,0,0,.78-2,2.49,2.49,0,0,0-.39-1.44,2.87,2.87,0,0,0-1-.88,14.31,14.31,0,0,0-1.64-.71,15.26,15.26,0,0,1-1.92-.88,3.5,3.5,0,0,1-1.23-1.22,3.89,3.89,0,0,1-.5-2.1,3.84,3.84,0,0,1,1.27-3,4.82,4.82,0,0,1,3.29-1.13,5.63,5.63,0,0,1,1.69.26,6.62,6.62,0,0,1,1.3.54l.64.37-.33,1.29-.55-.37a6.73,6.73,0,0,0-1.14-.56,4,4,0,0,0-1.45-.27,3,3,0,0,0-2,.69,2.2,2.2,0,0,0-.79,1.74,2.51,2.51,0,0,0,.41,1.46,3,3,0,0,0,1,.91c.42.22,1,.47,1.67.75a13.34,13.34,0,0,1,2,.89,3.69,3.69,0,0,1,1.28,1.24,3.8,3.8,0,0,1,.52,2.1,4.57,4.57,0,0,1-1.23,3.26,4.78,4.78,0,0,1-3.63,1.3A5.53,5.53,0,0,1,265.47,584.52Z"/><path d="M275.71,584.71V562.27l2-.12v14.43l1.68-1.26,4.09-5.61H285l-4.53,6.15,5.11,8.85h-2.28l-4.37-7.56-1.21.81v6.75Z"/><path d="M288.24,569.71h1.48l.3,3.09a5.12,5.12,0,0,1,.32-1,5.28,5.28,0,0,1,1-1.61,2.17,2.17,0,0,1,1.71-.75,4.22,4.22,0,0,1,1.18.2,8.14,8.14,0,0,1,.85.28l-.19,1.65a6.85,6.85,0,0,0-.87-.27,4.59,4.59,0,0,0-1.19-.18,1.82,1.82,0,0,0-1.36.59,3.89,3.89,0,0,0-.84,1.24,9.54,9.54,0,0,0-.36,1v10.8h-2Z"/><path d="M297.5,566.35a1.46,1.46,0,0,1,0-1.92,1,1,0,0,1,.79-.33,1.13,1.13,0,0,1,.83.3,1.48,1.48,0,0,1,.33,1,1.51,1.51,0,0,1-.33,1,1.25,1.25,0,0,1-.83.33A1,1,0,0,1,297.5,566.35Zm-.22,18.36v-15h2v15Z"/><path d="M306.4,584.71l-4.7-15h2.37l3.57,12.63,3.79-12.63h1.51l-4.72,15Z"/><path d="M315.61,583.14q-1.58-1.87-1.57-5.63a10.28,10.28,0,0,1,1.51-5.94,4.79,4.79,0,0,1,4.13-2.16,4.22,4.22,0,0,1,3.64,1.79,8.58,8.58,0,0,1,1.28,5,5.85,5.85,0,0,1-.06.93c0,.24-.06.39-.08.45h-8.33q0,6.06,4,6.06a3.85,3.85,0,0,0,1.89-.43,4.59,4.59,0,0,0,1.22-.93,2.16,2.16,0,0,0,.44-.59l.8.72a2.77,2.77,0,0,1-.53.77,5.13,5.13,0,0,1-1.54,1.21,5,5,0,0,1-2.5.57A5.3,5.3,0,0,1,315.61,583.14Zm7.12-6.77,0-.57q0-5.1-3.07-5.1a2.78,2.78,0,0,0-2.5,1.4,8.92,8.92,0,0,0-1,4.27Z"/><path d="M335.12,584a5.87,5.87,0,0,1-.71-3.32v-9.51H333v-1.26l1.43-.18.74-4.77h1.26v4.74h3.52v1.47h-3.52v9a7.11,7.11,0,0,0,.35,2.69,1.19,1.19,0,0,0,1.19.73,4.73,4.73,0,0,0,1.24-.15,2.41,2.41,0,0,0,.55-.18l.14,1.2a1.61,1.61,0,0,1-.35.2,4.26,4.26,0,0,1-.85.25,6.67,6.67,0,0,1-1.36.12A2.52,2.52,0,0,1,335.12,584Z"/><path d="M343.09,566.35a1.46,1.46,0,0,1,0-1.92,1,1,0,0,1,.8-.33,1.12,1.12,0,0,1,.82.3,1.48,1.48,0,0,1,.33,1,1.51,1.51,0,0,1-.33,1,1.25,1.25,0,0,1-.82.33A1,1,0,0,1,343.09,566.35Zm-.22,18.36v-15h2v15Z"/><path d="M349,584.71V562.27l2-.12v22.56Z"/><path d="M355.13,584.71V562.27l2-.12v22.56Z"/><path d="M360.43,592.42a3.21,3.21,0,0,1-.55-.18l-.25-.12.22-1.38a2,2,0,0,0,.42.17,2.3,2.3,0,0,0,.71.1,2.47,2.47,0,0,0,2.12-1.48,27.38,27.38,0,0,0,1.89-4.64l-5.38-15.18H362L366,582.25l3.68-12.54h1.46L366.42,585a29.11,29.11,0,0,1-2.32,5.63,3.28,3.28,0,0,1-2.82,1.93A3.52,3.52,0,0,1,360.43,592.42Z"/><path d="M373.57,584.71V562.27l2-.12v14.43l1.68-1.26,4.09-5.61h1.52l-4.54,6.15,5.11,8.85h-2.28l-4.37-7.56-1.21.81v6.75Z"/><path d="M386.1,584.71V562.27l2-.12v14.43l1.68-1.26,4.1-5.61h1.51l-4.54,6.15,5.11,8.85h-2.28l-4.37-7.56-1.21.81v6.75Z"/><path d="M399.18,583.14a8.65,8.65,0,0,1-1.57-5.63,10.28,10.28,0,0,1,1.51-5.94,4.79,4.79,0,0,1,4.13-2.16,4.22,4.22,0,0,1,3.64,1.79,8.58,8.58,0,0,1,1.28,5,5.85,5.85,0,0,1-.06.93c0,.24-.06.39-.08.45H399.7q0,6.06,4,6.06a3.83,3.83,0,0,0,1.89-.43,4.59,4.59,0,0,0,1.22-.93,2.16,2.16,0,0,0,.44-.59l.8.72a2.77,2.77,0,0,1-.53.77,5.21,5.21,0,0,1-1.53,1.21,5.09,5.09,0,0,1-2.51.57A5.3,5.3,0,0,1,399.18,583.14Zm7.12-6.77,0-.57q0-5.1-3.08-5.1a2.79,2.79,0,0,0-2.5,1.4,8.92,8.92,0,0,0-1,4.27Z"/><path d="M98.89,605.71h1.65l.25,1.8a5,5,0,0,1,1.31-1.38,4.17,4.17,0,0,1,2.59-.72,4.56,4.56,0,0,1,3.86,2,9,9,0,0,1,1.44,5.43,10.83,10.83,0,0,1-1.45,6,4.67,4.67,0,0,1-4.13,2.22,5.17,5.17,0,0,1-1.91-.31,3.93,3.93,0,0,1-1.19-.69c-.28-.25-.41-.4-.41-.44h0v8.64l-2,.06Zm8,12.2a10.16,10.16,0,0,0,1-5.06,8.11,8.11,0,0,0-1-4.56,3.29,3.29,0,0,0-2.86-1.41,3.16,3.16,0,0,0-1.71.45,3.85,3.85,0,0,0-1.08,1,2.27,2.27,0,0,0-.37.61v9.33a3.59,3.59,0,0,0,1,.87,3.46,3.46,0,0,0,1.88.45A3.38,3.38,0,0,0,106.89,617.91Z"/><path d="M113,620a3.43,3.43,0,0,1-1.1-2.72q0-4.41,7.78-5.31v-1.59a4.76,4.76,0,0,0-.64-2.91,2.71,2.71,0,0,0-2.22-.78,4.08,4.08,0,0,0-1.46.29,7.71,7.71,0,0,0-1.25.6l-.65.4-.22-1.23a6.88,6.88,0,0,1,.71-.45,8.06,8.06,0,0,1,1.42-.63,5.32,5.32,0,0,1,1.75-.3,4.77,4.77,0,0,1,3.46,1.08c.74.72,1.1,2,1.1,3.81v7.35a4.14,4.14,0,0,0,.21,1.62c.14.28.3.42.51.42a2.19,2.19,0,0,0,.6-.1,3,3,0,0,0,.47-.17l.08,1-.93.33a4,4,0,0,1-1.21.24,1.3,1.3,0,0,1-1.1-.49,3.36,3.36,0,0,1-.47-1.76h0a2.11,2.11,0,0,1-.44.69,4.25,4.25,0,0,1-1.3,1.07,4.31,4.31,0,0,1-2.16.49A4.21,4.21,0,0,1,113,620Zm5.22-.83a3.62,3.62,0,0,0,1.08-1.05,2.88,2.88,0,0,0,.38-.66v-4.38a11.51,11.51,0,0,0-4.11,1.17,2.92,2.92,0,0,0-1.61,2.76,2.64,2.64,0,0,0,.69,2,2.54,2.54,0,0,0,1.87.67A3,3,0,0,0,118.21,619.21Zm-2.57-15.75a2.91,2.91,0,0,1-.67-2.07,3,3,0,0,1,.68-2.07,2.43,2.43,0,0,1,3.51,0,3.45,3.45,0,0,1,0,4.14,2.54,2.54,0,0,1-3.54,0Zm3-.55a2.21,2.21,0,0,0,.45-1.52,2.18,2.18,0,0,0-.45-1.51,1.55,1.55,0,0,0-1.2-.5,1.57,1.57,0,0,0-1.21.51,2.71,2.71,0,0,0,0,3,1.59,1.59,0,0,0,1.21.49A1.54,1.54,0,0,0,118.61,602.91Z"/><path d="M133.05,619.06a8.66,8.66,0,0,1-1.51-5.43,10.74,10.74,0,0,1,1.47-6,4.68,4.68,0,0,1,4.13-2.24,5,5,0,0,1,1.9.32,4,4,0,0,1,1.18.69c.28.25.41.39.41.43h0v-8.58l2-.12v22.56h-1.7l-.22-1.77a4.11,4.11,0,0,1-1.19,1.37,3.84,3.84,0,0,1-2.47.7A4.82,4.82,0,0,1,133.05,619.06Zm6.16,0a3.92,3.92,0,0,0,1.08-1,2.37,2.37,0,0,0,.37-.63v-9.21s-.12-.18-.37-.42a3.75,3.75,0,0,0-1-.66,3.58,3.58,0,0,0-1.52-.3,3.35,3.35,0,0,0-3.11,1.7,10.14,10.14,0,0,0-1,5,8.21,8.21,0,0,0,1,4.56,3.27,3.27,0,0,0,2.87,1.41A3.08,3.08,0,0,0,139.21,619.08Z"/><path d="M147,602.35a1.49,1.49,0,0,1,0-1.92,1,1,0,0,1,.8-.33,1.14,1.14,0,0,1,.83.3,1.48,1.48,0,0,1,.33,1,1.51,1.51,0,0,1-.33,1,1.27,1.27,0,0,1-.83.33A1,1,0,0,1,147,602.35Zm-.22,18.36v-15h2v15Z"/><path d="M152.86,605.71h1.65l.25,1.44a5.19,5.19,0,0,1,1.37-1.15,5.13,5.13,0,0,1,2.7-.59,3.92,3.92,0,0,1,3.07,1.22,5.18,5.18,0,0,1,1.1,3.61v10.47h-2v-10a4.41,4.41,0,0,0-.72-2.8,2.55,2.55,0,0,0-2.11-.89,4.34,4.34,0,0,0-2.9,1c-.29.26-.43.41-.43.45v12.21h-2Z"/><path d="M173.89,607.18h-1.43v-1.26l1.43-.18v-2.16a8.52,8.52,0,0,1,.82-4.27,3,3,0,0,1,2.78-1.37,3.78,3.78,0,0,1,1.23.2,5.08,5.08,0,0,1,.94.4l.44.27-.28,1.17-.35-.22a4.14,4.14,0,0,0-.72-.32,2.8,2.8,0,0,0-.91-.15,1.6,1.6,0,0,0-1.15.39,2.61,2.61,0,0,0-.62,1.38,14,14,0,0,0-.21,2.76v1.89h4v1.47h-4v13.53h-2Z"/><path d="M182,625.9l1.95-5.58a5.33,5.33,0,0,1-2.26-2.65,11.5,11.5,0,0,1-.77-4.46,9.58,9.58,0,0,1,1.5-5.76,5.07,5.07,0,0,1,4.36-2,5.94,5.94,0,0,1,2.28.42l1.65-4.62,1,.18-1.75,5a5.54,5.54,0,0,1,2,2.66,11.73,11.73,0,0,1,.67,4.21,9.54,9.54,0,0,1-1.52,5.75,5.07,5.07,0,0,1-4.33,2,6.46,6.46,0,0,1-1.9-.27L183,626.08Zm6.56-18.66a3.13,3.13,0,0,0-1.78-.51,3,3,0,0,0-2.83,1.61,10.12,10.12,0,0,0-.91,4.87q0,4.17,1.43,5.61Zm1.05,10.85a10.3,10.3,0,0,0,.9-4.88q0-3.66-1.12-5.19l-4,11.4a3.61,3.61,0,0,0,1.43.27A3,3,0,0,0,189.58,618.09Z"/><path d="M196.42,619.06a8.66,8.66,0,0,1-1.51-5.43,10.74,10.74,0,0,1,1.47-6,4.68,4.68,0,0,1,4.14-2.24,5,5,0,0,1,1.89.32,4,4,0,0,1,1.18.69c.28.25.42.39.42.43h0v-8.58l2-.12v22.56h-1.7l-.22-1.77a4.06,4.06,0,0,1-1.18,1.37,3.87,3.87,0,0,1-2.48.7A4.83,4.83,0,0,1,196.42,619.06Zm6.16,0a3.78,3.78,0,0,0,1.08-1,2.37,2.37,0,0,0,.37-.63v-9.21s-.12-.18-.37-.42a3.53,3.53,0,0,0-1-.66,3.63,3.63,0,0,0-1.53-.3,3.32,3.32,0,0,0-3.1,1.7,10.14,10.14,0,0,0-1,5,8.22,8.22,0,0,0,1,4.56,3.27,3.27,0,0,0,2.87,1.41A3.08,3.08,0,0,0,202.58,619.08Z"/><path d="M211.08,620.52a4.93,4.93,0,0,1-1.51-1.07,2.64,2.64,0,0,1-.51-.66l.69-1a3.05,3.05,0,0,0,.44.57,4.51,4.51,0,0,0,1.21,1,3.62,3.62,0,0,0,1.81.43,3,3,0,0,0,2.32-.84,2.85,2.85,0,0,0,.79-2,2.5,2.5,0,0,0-.4-1.44,2.87,2.87,0,0,0-1-.88,13.57,13.57,0,0,0-1.64-.71,16.73,16.73,0,0,1-1.92-.88,3.47,3.47,0,0,1-1.22-1.22,3.89,3.89,0,0,1-.51-2.1,3.85,3.85,0,0,1,1.28-3,4.77,4.77,0,0,1,3.28-1.13,5.58,5.58,0,0,1,1.69.26,6.75,6.75,0,0,1,1.31.54l.63.37-.33,1.29c-.07-.06-.26-.18-.55-.37a6.05,6.05,0,0,0-1.14-.56,4,4,0,0,0-1.44-.27,3,3,0,0,0-2.05.69,2.22,2.22,0,0,0-.78,1.74,2.44,2.44,0,0,0,.41,1.46,2.9,2.9,0,0,0,1,.91,16.86,16.86,0,0,0,1.66.75,13.51,13.51,0,0,1,2,.89,3.67,3.67,0,0,1,1.27,1.24,3.8,3.8,0,0,1,.53,2.1,4.58,4.58,0,0,1-1.24,3.26,4.75,4.75,0,0,1-3.63,1.3A5.53,5.53,0,0,1,211.08,620.52Z"/><path d="M221.87,619.14q-1.58-1.87-1.57-5.63a10.28,10.28,0,0,1,1.51-5.94,4.79,4.79,0,0,1,4.13-2.16,4.22,4.22,0,0,1,3.64,1.79,8.58,8.58,0,0,1,1.28,5,5.85,5.85,0,0,1-.06.93c0,.24-.06.39-.08.45h-8.33q0,6.06,4,6.06a3.85,3.85,0,0,0,1.89-.43,4.59,4.59,0,0,0,1.22-.93,2.16,2.16,0,0,0,.44-.59l.8.72a2.77,2.77,0,0,1-.53.77,5.13,5.13,0,0,1-1.54,1.21,5,5,0,0,1-2.5.57A5.3,5.3,0,0,1,221.87,619.14Zm7.12-6.77,0-.57q0-5.1-3.07-5.1a2.78,2.78,0,0,0-2.5,1.4,8.92,8.92,0,0,0-1,4.27Z"/><path d="M233.8,620.71V598.27l2-.12v22.56Z"/><path d="M240.87,620.52a4.93,4.93,0,0,1-1.51-1.07,2.64,2.64,0,0,1-.51-.66l.69-1a3.05,3.05,0,0,0,.44.57,4.51,4.51,0,0,0,1.21,1,3.62,3.62,0,0,0,1.81.43,3,3,0,0,0,2.32-.84,2.85,2.85,0,0,0,.79-2,2.5,2.5,0,0,0-.4-1.44,2.87,2.87,0,0,0-1-.88,13.57,13.57,0,0,0-1.64-.71,16.73,16.73,0,0,1-1.92-.88,3.47,3.47,0,0,1-1.22-1.22,3.89,3.89,0,0,1-.51-2.1,3.85,3.85,0,0,1,1.28-3,4.77,4.77,0,0,1,3.28-1.13,5.58,5.58,0,0,1,1.69.26,6.75,6.75,0,0,1,1.31.54l.63.37-.33,1.29c-.07-.06-.26-.18-.55-.37a6.05,6.05,0,0,0-1.14-.56,4,4,0,0,0-1.44-.27,3,3,0,0,0-2,.69,2.22,2.22,0,0,0-.78,1.74,2.44,2.44,0,0,0,.41,1.46,2.9,2.9,0,0,0,1,.91,16.86,16.86,0,0,0,1.66.75,13.51,13.51,0,0,1,2,.89,3.67,3.67,0,0,1,1.27,1.24,3.8,3.8,0,0,1,.53,2.1,4.58,4.58,0,0,1-1.24,3.26,4.75,4.75,0,0,1-3.63,1.3A5.53,5.53,0,0,1,240.87,620.52Z"/><path d="M251.6,619.06a8.72,8.72,0,0,1-1.51-5.43,10.74,10.74,0,0,1,1.47-6,4.68,4.68,0,0,1,4.14-2.24,5.06,5.06,0,0,1,1.9.32,4.12,4.12,0,0,1,1.18.69c.27.25.41.39.41.43h0v-8.58l2-.12v22.56h-1.71l-.22-1.77a4,4,0,0,1-1.18,1.37,3.86,3.86,0,0,1-2.47.7A4.84,4.84,0,0,1,251.6,619.06Zm6.16,0a3.83,3.83,0,0,0,1.09-1,2.76,2.76,0,0,0,.37-.63v-9.21s-.13-.18-.37-.42a3.75,3.75,0,0,0-1-.66,3.6,3.6,0,0,0-1.53-.3,3.34,3.34,0,0,0-3.1,1.7,10.14,10.14,0,0,0-1,5,8.22,8.22,0,0,0,1,4.56,3.28,3.28,0,0,0,2.88,1.41A3,3,0,0,0,257.76,619.08Z"/><path d="M265.23,620a3.45,3.45,0,0,1-1.09-2.72q0-4.41,7.77-5.31v-1.59a4.84,4.84,0,0,0-.63-2.91,2.71,2.71,0,0,0-2.22-.78,4,4,0,0,0-1.46.29,7.32,7.32,0,0,0-1.25.6l-.65.4-.22-1.23a6.33,6.33,0,0,1,.7-.45,8.54,8.54,0,0,1,1.43-.63,5.32,5.32,0,0,1,1.75-.3,4.78,4.78,0,0,1,3.46,1.08c.73.72,1.1,2,1.1,3.81v7.35a4.14,4.14,0,0,0,.21,1.62c.13.28.3.42.5.42a2.2,2.2,0,0,0,.61-.1,3,3,0,0,0,.47-.17l.08,1-.94.33a3.89,3.89,0,0,1-1.21.24,1.29,1.29,0,0,1-1.09-.49,3.27,3.27,0,0,1-.47-1.76h0a2.33,2.33,0,0,1-.44.69,4.38,4.38,0,0,1-1.3,1.07,4.31,4.31,0,0,1-2.16.49A4.26,4.26,0,0,1,265.23,620Zm5.23-.83a3.88,3.88,0,0,0,1.08-1.05,2.62,2.62,0,0,0,.37-.66v-4.38a11.64,11.64,0,0,0-4.11,1.17,2.92,2.92,0,0,0-1.6,2.76,2.68,2.68,0,0,0,.68,2,2.55,2.55,0,0,0,1.87.67A3,3,0,0,0,270.46,619.21Z"/><path d="M278.43,627.27a5.21,5.21,0,0,1-.87-6.17,3.9,3.9,0,0,1,1.64-1.41,2.8,2.8,0,0,1-.5-1.77A3.16,3.16,0,0,1,280,615.4a4.22,4.22,0,0,1-1.71-1.81,6.31,6.31,0,0,1-.6-2.87,4.7,4.7,0,0,1,5-5.31,5.53,5.53,0,0,1,1.9.3l3.55,0v1.17l-1.76.06a5.8,5.8,0,0,1,1.1,3.75,5.63,5.63,0,0,1-1.28,4,4.57,4.57,0,0,1-3.53,1.38,6.13,6.13,0,0,1-1.68-.21,1.94,1.94,0,0,0-1,1.56,1.17,1.17,0,0,0,.6,1.13,4.52,4.52,0,0,0,2,.31c4,0,6,1.54,6,4.62a4.67,4.67,0,0,1-1.5,3.75,6.33,6.33,0,0,1-4.27,1.29A6.79,6.79,0,0,1,278.43,627.27Zm7.39-1a3,3,0,0,0,1-2.48q0-3.15-4.48-3.15a7.17,7.17,0,0,1-2.06-.24A3,3,0,0,0,279,621.6a3.61,3.61,0,0,0-.51,2,3.2,3.2,0,0,0,1.14,2.69,5.17,5.17,0,0,0,3.23.88A4.59,4.59,0,0,0,285.82,626.31Zm-.28-15.62a4.74,4.74,0,0,0-.77-3.07,2.67,2.67,0,0,0-2.17-.92,2.83,2.83,0,0,0-2.21.9,4.67,4.67,0,0,0-.81,3.12,5.07,5.07,0,0,0,.8,3.09,2.66,2.66,0,0,0,2.25,1.05Q285.54,614.86,285.54,610.69Z"/></svg>