<?xml version="1.0" standalone="no"?>
<!DOCTYPE svg PUBLIC "-//W3C//DTD SVG 20010904//EN"
 "http://www.w3.org/TR/2001/REC-SVG-20010904/DTD/svg10.dtd">
<svg version="1.0" xmlns="http://www.w3.org/2000/svg"
 width="984.000000pt" height="984.000000pt" viewBox="0 0 984.000000 984.000000"
 preserveAspectRatio="xMidYMid meet">
<metadata>
Created by potrace 1.11, written by Peter Selinger 2001-2013
</metadata>
<g transform="translate(0.000000,984.000000) scale(0.100000,-0.100000)"
fill="#000000" stroke="none">
<path d="M4794 9354 c-190 -27 -414 -134 -650 -310 -21 -16 -41 -31 -44 -34
-3 -3 -36 -32 -75 -65 -109 -92 -267 -249 -378 -375 -56 -63 -104 -117 -108
-120 -3 -3 -47 -59 -98 -125 -51 -66 -98 -127 -105 -136 -7 -9 -42 -58 -77
-110 -35 -52 -66 -96 -69 -99 -26 -25 -227 -353 -331 -540 -111 -199 -369
-741 -369 -775 0 -4 -7 -21 -15 -38 -63 -139 -196 -536 -265 -792 -28 -104
-52 -199 -54 -210 -2 -11 -13 -65 -25 -120 -28 -132 -51 -262 -65 -362 -16
-109 -26 -184 -31 -238 -3 -33 -8 -78 -10 -100 -23 -224 -24 -874 0 -1123 2
-26 7 -87 10 -136 4 -49 8 -98 10 -110 2 -11 6 -57 10 -101 3 -44 8 -87 10
-95 2 -8 6 -40 10 -71 3 -31 7 -65 9 -75 2 -11 7 -41 10 -69 8 -65 53 -308 67
-360 5 -22 11 -47 13 -55 2 -8 6 -28 10 -45 89 -372 225 -739 362 -977 45 -78
145 -238 161 -258 6 -8 35 -46 64 -85 63 -84 98 -123 209 -235 169 -170 297
-267 510 -387 141 -79 411 -191 505 -209 11 -2 31 -8 45 -13 14 -5 45 -14 70
-19 25 -6 59 -14 75 -18 17 -4 39 -9 50 -11 11 -2 54 -10 95 -17 41 -8 102
-17 135 -21 33 -4 67 -8 75 -10 95 -24 694 -25 830 -1 14 2 47 7 73 11 27 4
59 8 70 11 52 10 74 14 102 20 17 3 66 14 109 25 821 209 1423 804 1759 1739
25 69 51 145 58 170 7 25 14 50 16 55 7 22 83 312 87 332 3 13 12 58 20 100 9
43 18 89 21 103 6 30 26 147 30 175 6 41 16 111 20 135 12 79 28 229 40 375 4
44 9 96 10 115 26 274 26 1012 -1 1260 -17 167 -38 335 -48 387 -3 11 -7 36
-10 54 -12 70 -36 198 -40 214 -2 6 -6 28 -10 50 -64 333 -256 915 -427 1295
-96 214 -283 573 -372 714 -7 11 -43 69 -81 130 -116 187 -308 456 -425 596
-25 30 -57 68 -71 84 -121 144 -319 345 -456 462 -261 224 -574 398 -770 428
-22 4 -52 9 -69 12 -57 10 -132 10 -211 -2z"/>
</g>
</svg>
